<svg id="Calque_1" xmlns="http://www.w3.org/2000/svg" width="594.35" height="595.279" viewBox="0 0 594.35 595.279"><circle fill="none" stroke="#000" stroke-width="2" stroke-miterlimit="10" cx="298.146" cy="296.074" r="280.673"/><ellipse fill="none" stroke="#000" stroke-width="2" stroke-miterlimit="10" cx="298.146" cy="296.075" rx="149.892" ry="280.676"/><ellipse fill="none" stroke="#000" stroke-width="2" stroke-miterlimit="10" cx="298.147" cy="292.095" rx="280.674" ry="102.145"/><path fill="none" stroke="#000" stroke-width="2" stroke-miterlimit="10" d="M298.147 296.075L142.08 133.394M298.147 296.075l156.807-173.539M298.147 296.075l21.422-182.422M298.147 296.075l156.807 194.608M298.147 296.075l-131.393 21.339"/><ellipse fill="none" stroke="#000" stroke-width="2" stroke-miterlimit="10" cx="142.08" cy="133.394" rx="5.969" ry="9.799"/><ellipse fill="none" stroke="#000" stroke-width="2" stroke-miterlimit="10" cx="319.57" cy="113.653" rx="5.97" ry="9.801"/><ellipse fill="none" stroke="#000" stroke-width="2" stroke-miterlimit="10" cx="454.955" cy="122.536" rx="5.97" ry="9.801"/><ellipse fill="none" stroke="#000" stroke-width="2" stroke-miterlimit="10" cx="551.114" cy="214.733" rx="5.969" ry="9.801"/><ellipse fill="none" stroke="#000" stroke-width="2" stroke-miterlimit="10" cx="166.755" cy="317.415" rx="5.969" ry="9.799"/><ellipse fill="none" stroke="#000" stroke-width="2" stroke-miterlimit="10" cx="409.189" cy="349.497" rx="5.969" ry="9.799"/><ellipse fill="none" stroke="#000" stroke-width="2" stroke-miterlimit="10" cx="160.787" cy="490.683" rx="5.969" ry="9.799"/><ellipse fill="none" stroke="#000" stroke-width="2" stroke-miterlimit="10" cx="454.953" cy="490.683" rx="5.97" ry="9.799"/><path fill="none" stroke="#000" stroke-width="2" stroke-miterlimit="10" d="M298.442 296.44L160.786 490.683M298.147 296.858l111.043 52.638M298.147 296.858l252.967-82.125"/><path d="M173.121 254.978c0-.102.02-.199.059-.293.039-.092.093-.174.161-.244.068-.069.147-.127.242-.166.092-.039.188-.059.293-.059.105 0 .206.02.296.059.091.039.171.097.242.166.069.07.127.15.168.24.042.092.062.189.062.297v9.111c0 .104-.021.201-.062.293-.041.094-.099.174-.168.242-.071.067-.151.123-.242.164-.09.043-.189.062-.296.062-.104 0-.201-.02-.293-.062-.095-.041-.174-.097-.242-.164-.068-.068-.122-.148-.161-.242-.039-.092-.059-.189-.059-.293v-9.111zM178.663 257.696c.146-.084.283-.151.413-.204.13-.056.258-.101.385-.138s.254-.062.381-.08c.127-.018.261-.024.403-.024.359 0 .722.067 1.084.209.359.139.687.34.978.604.29.265.525.584.706.959.181.377.271.802.271 1.275v3.793c0 .113-.021.217-.066.312-.043.095-.1.177-.168.24-.068.066-.149.117-.242.154s-.186.055-.277.055c-.107 0-.207-.02-.297-.062-.091-.041-.171-.097-.241-.164-.07-.068-.128-.148-.169-.242-.042-.092-.062-.189-.062-.293v-3.793c0-.195-.038-.387-.113-.572-.076-.186-.181-.348-.314-.49-.134-.141-.294-.254-.479-.336-.186-.084-.389-.125-.606-.125-.245 0-.461.047-.648.14-.188.094-.347.215-.477.362-.129.148-.228.312-.293.494-.065.181-.1.355-.1.527v3.793c0 .104-.021.201-.062.293-.041.094-.099.174-.168.242-.071.067-.151.123-.242.164-.09.043-.189.062-.296.062-.104 0-.201-.02-.293-.062-.094-.041-.174-.097-.242-.164-.068-.068-.122-.148-.161-.242-.039-.092-.059-.189-.059-.293v-6.078c0-.098.02-.193.059-.285.039-.094.093-.174.161-.242.068-.067.148-.125.242-.168.092-.045.188-.065.293-.065.146 0 .282.039.41.121.122.077.22.187.289.323zM186.6 254.972c0-.107.021-.207.062-.297.042-.09.097-.17.165-.238.067-.067.147-.123.241-.162.093-.039.192-.059.301-.059.107 0 .209.02.304.059.096.039.176.097.242.166.064.07.118.15.156.24.039.092.06.188.06.291v2.277h.755c.106 0 .207.021.3.062s.172.099.238.168c.065.07.119.152.161.246.041.092.062.188.062.285 0 .111-.021.213-.062.303-.042.092-.098.17-.165.238-.068.068-.147.123-.238.162-.09.039-.188.059-.296.059h-.755v3.793c0 .095.002.164.007.209.005.047.014.08.026.104.012.021.024.039.04.055.015.014.03.033.051.06.045.062.076.108.096.139.021.03.043.055.069.074s.062.035.105.051c.044.014.114.039.213.072.02.006.07.008.153.008.099 0 .191.018.282.055.09.037.171.09.241.158s.128.147.173.242c.043.092.064.19.064.299 0 .107-.021.209-.062.301-.041.094-.097.172-.165.238-.068.065-.147.119-.237.158-.091.039-.187.059-.29.059-.547 0-1.018-.148-1.413-.443-.395-.295-.677-.756-.843-1.381-.029-.146-.043-.299-.043-.455v-3.793c-.216 0-.395-.071-.539-.217-.144-.143-.216-.326-.216-.545 0-.098.021-.193.059-.285.039-.094.094-.174.161-.242.068-.067.148-.125.242-.168.092-.045.189-.065.293-.065v-2.281h.002zM196.286 262.882c.067-.098.154-.174.26-.229.104-.053.224-.08.354-.08.094 0 .186.021.274.06.091.039.171.094.242.162.069.067.127.146.168.235.042.093.062.189.062.298 0 .104-.02.2-.059.297-.039.096-.091.182-.154.26-.062.078-.131.15-.205.213-.072.064-.137.117-.188.162-.177.141-.347.25-.511.324-.162.076-.32.135-.473.176-.151.043-.296.068-.436.078s-.271.014-.393.014c-.474 0-.897-.084-1.273-.252s-.692-.414-.948-.736c-.257-.321-.453-.719-.59-1.188-.138-.47-.205-1.012-.205-1.623 0-.629.069-1.182.212-1.654.142-.475.345-.869.607-1.188.265-.316.581-.558.952-.717.371-.162.786-.242 1.245-.242.42 0 .813.071 1.18.219.366.146.686.375.955.686.271.312.484.705.643 1.187.155.481.233 1.053.233 1.711 0 .107-.021.207-.062.297-.042.09-.097.172-.165.242s-.149.125-.241.164c-.094.039-.19.059-.293.059h-3.699c.029.24.079.455.15.646.07.19.163.352.278.479.113.129.256.229.425.297.168.068.367.103.597.103.161 0 .3-.015.417-.043.117-.029.217-.066.297-.111.081-.043.149-.092.205-.143.06-.058.105-.11.139-.163zm-2.132-3.649c-.111.156-.194.322-.248.498-.055.176-.096.363-.125.564h2.894c-.034-.215-.081-.416-.144-.605-.061-.188-.146-.35-.256-.485-.109-.138-.251-.242-.422-.318s-.378-.113-.622-.113-.455.039-.634.121c-.177.079-.326.192-.443.338zM202.261 257.696c.146-.084.284-.151.413-.204.13-.056.258-.101.385-.138s.254-.062.381-.08c.127-.018.262-.024.403-.024.229 0 .456.026.681.084.226.057.438.133.639.229.198.099.388.215.562.353.175.137.329.289.462.455.06.062.102.137.128.219.026.084.04.164.04.242 0 .102-.02.199-.059.293-.039.092-.091.176-.154.248-.062.073-.142.131-.233.172-.094.043-.189.062-.294.062-.137 0-.235-.018-.3-.055-.063-.037-.126-.084-.187-.146-.062-.062-.136-.134-.225-.216-.088-.084-.228-.176-.417-.278-.226-.093-.438-.14-.645-.14-.245 0-.461.047-.648.14-.188.094-.347.215-.477.362-.129.148-.228.312-.293.494-.065.181-.099.355-.099.527v3.793c0 .104-.021.201-.062.293-.041.094-.098.174-.168.242-.071.067-.151.123-.242.164-.09.043-.188.062-.296.062-.104 0-.201-.02-.293-.062-.094-.041-.174-.097-.242-.164-.067-.068-.122-.148-.161-.242-.039-.092-.059-.189-.059-.293v-6.078c0-.098.02-.193.059-.285.039-.094.094-.174.161-.242.068-.067.148-.125.242-.168.092-.045.189-.065.293-.065.146 0 .282.039.41.121.128.079.225.189.295.325zM209.94 257.696c.146-.084.284-.151.413-.204.13-.056.258-.101.385-.138s.255-.062.382-.08c.127-.018.261-.024.402-.024.36 0 .723.067 1.084.209.36.139.688.34.979.604.29.265.524.584.706.959.181.377.271.802.271 1.275v3.793c0 .113-.021.217-.065.312-.043.095-.101.177-.168.24-.068.066-.149.117-.242.154s-.187.055-.277.055c-.107 0-.207-.02-.297-.062-.091-.041-.171-.097-.242-.164-.07-.068-.127-.148-.168-.242-.042-.092-.062-.189-.062-.293v-3.793c0-.195-.038-.387-.113-.572-.076-.186-.181-.348-.315-.49-.134-.141-.294-.254-.479-.336-.187-.084-.389-.125-.607-.125-.245 0-.461.047-.647.14-.188.094-.348.215-.478.362-.129.148-.227.312-.293.494-.064.181-.099.355-.099.527v3.793c0 .104-.021.201-.062.293-.041.094-.098.174-.168.242-.07.067-.15.123-.241.164-.091.043-.189.062-.297.062-.104 0-.2-.02-.293-.062-.094-.041-.174-.097-.241-.164-.068-.068-.122-.148-.161-.242-.039-.092-.06-.189-.06-.293v-6.078c0-.098.021-.193.06-.285.039-.094.093-.174.161-.242.067-.067.147-.125.241-.168.093-.045.189-.065.293-.065.146 0 .282.039.41.121.121.077.219.187.288.323zM221.194 262.882c.068-.098.155-.174.261-.229.104-.053.224-.08.354-.08.093 0 .186.021.274.06.091.039.171.094.242.162.069.067.127.146.168.235.042.093.062.189.062.298 0 .104-.02.2-.059.297-.039.096-.092.182-.154.26-.063.078-.131.15-.205.213-.072.064-.137.117-.189.162-.176.141-.346.25-.51.324-.163.076-.32.135-.473.176-.151.043-.296.068-.437.078-.139.01-.27.014-.392.014-.474 0-.898-.084-1.274-.252s-.691-.414-.947-.736c-.257-.321-.453-.719-.59-1.188-.138-.47-.205-1.012-.205-1.623 0-.629.069-1.182.212-1.654.142-.475.345-.869.607-1.188.265-.316.581-.558.952-.717.371-.162.786-.242 1.245-.242.42 0 .813.071 1.179.219.367.146.687.375.956.686.271.312.484.705.643 1.187.154.481.233 1.053.233 1.711 0 .107-.021.207-.062.297-.042.09-.098.172-.165.242-.068.07-.149.125-.241.164-.094.039-.191.059-.293.059h-3.699c.029.24.079.455.15.646.07.19.163.352.277.479.114.129.257.229.426.297.168.068.367.103.597.103.161 0 .3-.015.417-.043.117-.029.217-.066.297-.111.081-.043.149-.092.205-.143.059-.058.104-.11.138-.163zm-2.132-3.649c-.111.156-.194.322-.248.498-.055.176-.096.363-.125.564h2.894c-.034-.215-.081-.416-.144-.605-.061-.188-.146-.35-.256-.485-.11-.138-.251-.242-.422-.318s-.378-.113-.622-.113-.455.039-.634.121c-.177.079-.325.192-.443.338zM226.466 254.972c0-.107.021-.207.062-.297.042-.09.098-.17.165-.238.068-.067.148-.123.242-.162.092-.039.192-.059.3-.059.108 0 .209.02.305.059s.176.097.241.166c.065.07.118.15.157.24.039.092.06.188.06.291v2.277h.755c.105 0 .207.021.3.062s.172.099.238.168c.064.07.119.152.161.246.041.092.062.188.062.285 0 .111-.021.213-.062.303-.042.092-.098.17-.165.238-.068.068-.147.123-.238.162-.09.039-.189.059-.296.059h-.755v3.793c0 .095.002.164.007.209.005.047.014.08.025.104.013.021.025.039.04.055.016.014.031.033.052.06.045.062.075.108.096.139.02.03.043.055.069.074s.062.035.105.051c.044.014.114.039.213.072.02.006.07.008.153.008.098 0 .191.018.282.055.09.037.171.09.24.158.071.068.129.147.174.242.043.092.064.19.064.299 0 .107-.021.209-.062.301-.041.094-.098.172-.165.238-.068.065-.147.119-.237.158-.091.039-.187.059-.29.059-.547 0-1.018-.148-1.413-.443-.395-.295-.677-.756-.843-1.381-.029-.146-.043-.299-.043-.455v-3.793c-.216 0-.396-.071-.539-.217-.144-.143-.216-.326-.216-.545 0-.098.02-.193.059-.285.039-.094.093-.174.161-.242.068-.067.148-.125.242-.168.092-.045.188-.065.293-.065v-2.281h.001z"/><path fill="#009430" d="M299.147 286.478c-6.964.211-14.852 2.519-19.494 7.998-3.89 4.59-3.632 12.205 1.896 15.504 10.812 6.455 28.916-4.85 30.762-16.559.498-3.154-4.319-4.508-4.819-1.33-1.239 7.854-10.902 13.994-18.315 14.817-7.042.783-8.942-6.256-4.332-10.647 3.521-3.355 9.614-4.641 14.305-4.783 3.214-.098 3.223-5.098-.003-5z"/><path d="M213.65 274.53c11.888 6.527 24.352 11.871 37.632 14.793 1.571.347 2.238-2.063.664-2.409-13.073-2.877-25.328-8.115-37.033-14.541-1.415-.778-2.676 1.382-1.263 2.157z"/><path d="M252.566 280.335c3.626 3.506 7.707 6.492 11.333 10 .185-.697.367-1.394.553-2.09-7.179 1.961-14.368 3.94-20.966 7.459-1.423.76-.159 2.918 1.263 2.159 6.403-3.415 13.401-5.307 20.366-7.206.897-.246 1.23-1.435.553-2.091-3.626-3.508-7.707-6.493-11.333-10-1.16-1.12-2.93.646-1.769 1.769zM102.841 111.872c0 .104-.021.2-.062.293-.041.094-.098.174-.168.241-.07.068-.15.123-.241.164-.091.043-.189.062-.296.062-.104 0-.201-.021-.294-.062-.094-.041-.174-.096-.241-.164-.068-.067-.122-.147-.161-.241-.039-.093-.06-.189-.06-.293v-9.111c0-.102.021-.199.06-.293.039-.092.093-.174.161-.244.067-.072.147-.127.241-.166.093-.039.189-.059.294-.059.17 0 .318.047.445.139.127.094.217.209.271.346l3.092 6.188 3.135-6.246c.06-.123.147-.223.268-.301.119-.078.255-.117.406-.117.098 0 .191.018.281.055.091.037.172.09.246.162.072.07.13.15.172.24.041.092.062.188.062.297v9.111c0 .104-.021.201-.06.293-.04.094-.095.174-.165.242-.07.067-.15.122-.242.163-.09.043-.188.062-.296.062-.104 0-.201-.021-.293-.062-.094-.041-.174-.094-.242-.159-.067-.066-.121-.146-.16-.242s-.06-.193-.06-.297v-5.918l-2.38 4.737c-.059.134-.154.236-.286.312s-.262.113-.388.113c-.162 0-.301-.043-.418-.13-.117-.084-.205-.184-.264-.297l-2.358-4.723v5.905h.001zM116.059 105.031c.443 0 .854.078 1.23.234.375.156.695.394.963.709.266.318.474.713.622 1.188.148.473.224 1.028.224 1.67 0 .6-.068 1.137-.205 1.606-.137.471-.335.867-.594 1.189s-.577.57-.955.744c-.379.174-.808.26-1.285.26-.469 0-.892-.082-1.268-.244-.376-.164-.694-.406-.956-.727-.261-.318-.463-.718-.604-1.189-.142-.475-.212-1.021-.212-1.641 0-.66.077-1.228.23-1.703.153-.478.364-.871.634-1.185.269-.312.59-.543.963-.69.374-.146.777-.221 1.213-.221zm1.09 1.993c-.122-.155-.275-.272-.462-.352-.186-.079-.395-.117-.629-.117-.304 0-.553.055-.748.168-.194.111-.35.269-.465.469-.114.199-.193.439-.238.718-.043.278-.064.586-.064.924 0 .449.035.819.105 1.112s.173.525.309.699c.134.174.295.295.482.367.188.07.395.105.619.105.219 0 .423-.037.611-.109.188-.074.349-.199.482-.377.135-.18.237-.412.312-.701.072-.287.109-.654.109-1.098 0-.396-.034-.748-.104-1.056-.065-.306-.172-.556-.319-.752zM123.116 105.478c.146-.082.283-.149.412-.205.131-.053.259-.098.386-.135s.254-.062.381-.08c.127-.018.261-.024.402-.024.36 0 .723.067 1.085.209.359.139.687.34.978.604.29.264.525.584.706.959.181.377.271.801.271 1.275v3.793c0 .112-.021.217-.065.312-.043.094-.101.176-.168.24-.068.065-.149.117-.242.154-.093.036-.186.055-.277.055-.107 0-.207-.021-.297-.062-.091-.041-.171-.096-.242-.163-.069-.068-.127-.148-.168-.242-.042-.093-.062-.189-.062-.293v-3.793c0-.195-.038-.388-.113-.572-.076-.187-.181-.35-.314-.49-.135-.143-.294-.254-.479-.338-.186-.082-.389-.123-.606-.123-.245 0-.461.045-.648.139-.188.093-.347.214-.477.363-.13.148-.228.312-.293.494-.065.18-.1.355-.1.527v3.793c0 .104-.021.2-.062.293-.041.094-.099.174-.168.242-.071.067-.151.122-.242.163-.09.043-.189.062-.296.062-.104 0-.201-.021-.293-.062-.095-.041-.174-.096-.242-.163-.068-.068-.122-.148-.161-.242-.039-.093-.059-.189-.059-.293v-6.078c0-.099.02-.193.059-.287.039-.092.093-.172.161-.24.068-.067.147-.125.242-.17.092-.043.188-.063.293-.063.146 0 .282.038.41.12.121.076.219.184.288.321zM131.053 102.753c0-.107.021-.205.062-.295.043-.092.098-.17.165-.238.068-.068.148-.123.242-.162.092-.039.192-.059.3-.059.108 0 .209.02.305.059s.176.094.242.166c.064.07.117.15.156.24.039.092.06.188.06.289v2.278h.755c.105 0 .207.021.3.062.093.041.172.098.238.168.064.07.119.152.161.244.041.094.062.188.062.287 0 .11-.021.213-.062.303-.042.092-.098.17-.165.238-.068.067-.147.123-.238.162-.09.039-.189.059-.296.059h-.755v3.793c0 .094.002.162.007.209s.014.08.026.104c.012.021.024.039.04.055.015.014.03.033.051.059.045.062.076.109.096.14.02.029.043.053.069.071.026.021.062.037.105.054.044.014.114.039.213.071.02.007.07.009.153.009.098 0 .191.018.282.055.09.037.171.09.241.158.07.067.128.147.173.239.043.095.064.193.064.302 0 .107-.021.207-.062.301-.041.092-.098.172-.165.238-.068.065-.147.116-.237.155-.091.039-.187.06-.29.06-.547 0-1.018-.146-1.413-.441-.396-.297-.677-.756-.843-1.381-.029-.146-.043-.299-.043-.455v-3.793c-.216 0-.395-.072-.539-.217-.144-.146-.216-.326-.216-.545 0-.099.02-.193.059-.287.039-.092.094-.172.161-.24.068-.067.148-.125.242-.17.092-.043.189-.063.293-.063v-2.282h.001zM138.125 105.478c.146-.082.284-.149.413-.205.13-.053.258-.098.385-.135s.254-.062.381-.08c.127-.018.261-.024.403-.024.229 0 .456.026.681.084.225.057.438.133.638.229.199.098.389.215.563.352.175.138.329.287.462.453.059.064.101.138.128.222.026.082.04.164.04.241 0 .103-.02.199-.059.294-.039.092-.092.176-.154.247-.063.074-.143.132-.234.173-.093.043-.188.062-.293.062-.137 0-.235-.018-.3-.055s-.126-.086-.187-.146c-.062-.061-.137-.133-.225-.217-.088-.082-.228-.176-.417-.277-.226-.094-.438-.139-.645-.139-.245 0-.461.045-.648.139-.188.093-.347.213-.477.363-.129.148-.228.312-.293.494-.065.18-.1.354-.1.527v3.793c0 .104-.021.2-.062.293-.041.094-.099.174-.168.241-.071.068-.151.123-.242.164-.09.043-.189.062-.296.062-.104 0-.201-.021-.293-.062-.094-.041-.174-.096-.242-.164-.068-.067-.122-.147-.161-.241-.039-.093-.059-.189-.059-.293v-6.078c0-.099.02-.193.059-.287.039-.092.093-.172.161-.24s.148-.125.242-.17c.092-.043.188-.064.293-.064.146 0 .282.039.41.121.129.078.227.186.296.323zM148.419 110.663c.067-.099.155-.172.26-.228.105-.053.224-.08.355-.08.093 0 .185.021.273.06.091.039.171.092.242.16.07.067.127.147.168.237.042.092.062.189.062.297 0 .104-.02.201-.059.297-.039.097-.091.183-.154.261-.062.078-.131.147-.205.213-.071.062-.137.117-.188.16-.176.143-.346.252-.51.326-.163.075-.321.135-.474.176-.15.043-.296.067-.436.078-.14.01-.271.014-.393.014-.474 0-.897-.084-1.273-.252s-.692-.414-.948-.736c-.257-.321-.453-.719-.59-1.188-.137-.474-.205-1.015-.205-1.623 0-.631.07-1.183.212-1.656.143-.473.345-.869.608-1.186.264-.318.581-.558.952-.72.37-.16.785-.239 1.244-.239.42 0 .813.071 1.18.219.367.146.686.375.956.686.271.312.483.705.642 1.187.155.481.234 1.051.234 1.711 0 .106-.021.207-.062.297-.042.09-.097.17-.165.242-.067.069-.148.125-.241.164-.094.039-.19.059-.293.059h-3.698c.028.238.079.453.149.646.07.188.163.35.278.479.114.129.256.227.425.295.168.068.367.104.597.104.161 0 .301-.017.417-.045.117-.029.218-.064.298-.109.081-.043.148-.092.204-.144.059-.054.104-.107.138-.162zm-2.132-3.646c-.112.156-.195.322-.248.498-.056.176-.097.363-.125.564h2.893c-.034-.216-.081-.416-.143-.605-.062-.188-.146-.35-.256-.486-.11-.137-.251-.241-.423-.317-.171-.076-.378-.113-.622-.113-.243 0-.454.039-.634.121-.176.078-.325.191-.442.338zM157.482 107.2c-.02-.138-.069-.25-.152-.339-.104-.106-.225-.186-.362-.233-.14-.049-.281-.078-.425-.088-.146-.011-.253-.015-.326-.015-.273 0-.525.029-.755.093-.229.061-.453.143-.674.243-.107.056-.218.08-.329.08-.104 0-.199-.02-.289-.059-.091-.039-.173-.094-.245-.164-.074-.07-.131-.15-.173-.242-.041-.09-.062-.186-.062-.289 0-.166.048-.311.146-.432.097-.123.224-.228.381-.314.155-.088.328-.162.516-.221s.376-.104.564-.139c.188-.035.363-.058.526-.07.163-.012.295-.018.393-.018.41 0 .81.065 1.197.196.389.134.732.351 1.035.652.134.141.25.311.353.506.104.238.162.435.176.586.017.15.022.279.022.387v3.796c.083.01.166.032.249.071s.155.095.22.162c.063.068.114.146.153.23s.059.182.059.289c0 .104-.021.2-.062.293-.042.094-.098.174-.165.241-.068.068-.149.123-.242.164-.093.043-.189.062-.293.062-.156 0-.318-.029-.486-.092-.169-.062-.324-.15-.465-.269-.094-.078-.176-.166-.25-.264-.127.063-.266.127-.417.19-.22.089-.443.164-.67.228-.229.063-.443.113-.648.15-.205.036-.384.055-.534.055h-.08c-.299 0-.593-.053-.884-.156-.29-.104-.551-.258-.779-.459-.229-.199-.415-.443-.558-.729-.142-.286-.212-.609-.212-.972v-.088c0-.272.06-.545.176-.815.117-.271.288-.515.514-.729.225-.215.495-.389.812-.52.279-.113.584-.177.916-.191.024-.004.049-.008.073-.008h1.538c.342 0 .513-.144.513-.433l.005-.326zm-2.093 2.291c-.074.01-.146.024-.221.045-.127.028-.242.075-.349.143-.104.066-.19.145-.26.234-.068.089-.103.196-.103.317v.088c.023.244.112.439.268.586.153.146.367.222.642.222 0 0 .012-.002.021-.004.009-.002.02-.004.029-.004h.036c.116-.007.246-.021.388-.052.142-.029.286-.065.433-.11.146-.043.292-.095.437-.148.145-.057.273-.119.392-.188.068-.035.138-.08.205-.136.068-.057.117-.106.146-.149l.021-1.013c-.015.017-.05.031-.105.052-.057.02-.127.039-.212.057-.087.016-.179.031-.274.043-.099.012-.193.019-.286.019l-1.208-.002zM162.102 102.761c0-.102.021-.199.06-.293.039-.092.093-.174.16-.244.068-.072.148-.127.242-.166.092-.039.189-.059.293-.059.106 0 .206.02.296.059.092.039.172.094.242.166.07.07.127.15.168.24.042.092.062.188.062.297v8.357c.083.01.166.032.249.071s.155.095.22.162c.064.068.114.146.153.23s.059.182.059.289c0 .104-.021.2-.062.293-.042.094-.098.174-.165.241-.068.068-.149.123-.242.164-.093.043-.189.062-.293.062-.156 0-.318-.029-.486-.092-.169-.062-.324-.15-.465-.271-.143-.121-.26-.271-.352-.451-.095-.182-.141-.393-.141-.637l.002-8.418z"/><g><path d="M442.527 446.278c0-.102.021-.199.06-.293.039-.092.093-.174.16-.244.068-.069.148-.127.242-.166.092-.039.189-.059.293-.059.106 0 .206.02.296.059.092.039.171.097.242.166.07.07.127.15.168.24.042.092.062.189.062.297v8.357h4.556c.098 0 .194.02.289.059.096.039.177.094.246.162.066.068.123.148.164.24.042.094.062.19.062.293 0 .104-.021.201-.062.293-.041.094-.097.174-.164.242-.069.067-.149.123-.242.164-.093.043-.189.062-.293.062h-5.324c-.104 0-.201-.02-.293-.062-.094-.041-.174-.097-.242-.164-.067-.068-.121-.148-.16-.242-.039-.092-.06-.189-.06-.293v-9.111zM456.001 454.183c.067-.098.154-.174.26-.229.104-.053.224-.079.354-.079.094 0 .186.02.274.059.091.039.171.094.242.162.069.067.127.146.168.235.042.093.062.189.062.298 0 .104-.02.2-.059.297-.039.096-.091.182-.154.26-.062.078-.131.15-.205.213-.072.064-.137.117-.188.162-.177.141-.347.25-.511.324-.162.076-.32.135-.473.176-.151.043-.296.068-.436.078s-.271.014-.393.014c-.474 0-.897-.084-1.273-.252s-.692-.414-.948-.736c-.257-.321-.453-.719-.59-1.188-.138-.47-.205-1.012-.205-1.623 0-.629.07-1.182.212-1.654.142-.475.345-.869.608-1.188.264-.316.58-.558.951-.717.371-.162.786-.242 1.245-.242.42 0 .813.071 1.18.219.366.146.686.375.955.686.271.312.484.705.643 1.187.155.482.234 1.053.234 1.711 0 .107-.021.207-.062.297-.042.09-.097.172-.165.242s-.149.125-.241.164c-.094.039-.19.059-.293.059h-3.699c.029.24.079.455.15.646.07.19.163.352.278.479.113.129.256.229.425.297.168.068.367.103.597.103.161 0 .3-.015.417-.043.117-.029.217-.066.297-.111.081-.043.149-.092.205-.143.059-.059.104-.111.138-.163zm-2.133-3.65c-.111.156-.194.322-.248.498-.055.176-.096.363-.125.564h2.894c-.034-.215-.081-.416-.144-.605-.061-.188-.146-.35-.256-.485-.109-.138-.251-.242-.422-.318s-.378-.113-.622-.113-.455.039-.634.121c-.176.079-.325.193-.443.338zM472.108 453.485c.068-.106.16-.197.275-.27.113-.074.245-.111.392-.111.107 0 .209.023.304.07.097.047.176.104.238.176.063.071.113.152.15.246.036.092.055.182.055.27 0 .099-.023.199-.069.306-.047.104-.104.211-.176.313-.071.105-.147.205-.23.297-.083.095-.158.176-.228.25-.752.746-1.647 1.119-2.688 1.119-.515 0-.979-.07-1.399-.211-.42-.143-.786-.359-1.099-.652-.313-.293-.57-.666-.772-1.121-.203-.452-.349-.987-.437-1.604-.039-.289-.064-.576-.076-.865-.013-.287-.02-.576-.02-.862 0-.479.023-.941.069-1.39.047-.447.126-.865.238-1.26.111-.394.263-.754.45-1.084s.423-.611.702-.846c.281-.234.614-.416 1-.546.387-.129.832-.194 1.342-.194.354 0 .696.049 1.024.143.326.097.629.229.908.396.277.168.528.364.75.59.223.225.409.469.561.731.073.132.109.259.109.382 0 .11-.021.215-.064.307-.045.094-.102.174-.17.242-.067.067-.146.119-.236.153-.091.033-.186.052-.282.052-.142 0-.256-.027-.344-.08-.088-.056-.168-.123-.238-.209-.071-.086-.14-.176-.205-.271s-.143-.186-.229-.272c-.227-.201-.47-.357-.732-.474-.263-.115-.548-.172-.85-.172-.46 0-.837.082-1.133.244-.296.164-.528.406-.699.725-.171.32-.288.718-.353 1.191-.062.473-.095 1.021-.095 1.641 0 .693.039 1.281.117 1.767.078.481.207.875.388 1.178s.417.521.707.656c.291.135.646.201 1.066.201.224 0 .437-.031.637-.097.2-.062.385-.146.553-.248.169-.104.318-.225.451-.362.133-.141.246-.288.338-.445zM480.689 450.718c-.02-.138-.07-.25-.153-.338-.103-.107-.224-.187-.361-.234-.141-.049-.281-.078-.426-.088s-.253-.014-.325-.014c-.273 0-.525.03-.755.092-.23.061-.453.143-.675.244-.106.055-.217.082-.329.082-.103 0-.198-.021-.289-.06s-.173-.094-.244-.166c-.074-.07-.132-.149-.174-.242-.041-.09-.062-.186-.062-.289 0-.166.048-.309.146-.432.098-.121.225-.227.382-.313.154-.089.327-.162.516-.222.188-.059.376-.104.564-.139.188-.033.362-.058.526-.07.163-.012.294-.018.393-.018.409 0 .81.065 1.196.196.39.134.733.351 1.036.652.133.144.25.312.353.506.104.238.161.435.176.586.016.15.021.281.021.39v3.793c.083.01.166.035.249.073.083.039.156.093.221.16.063.068.113.146.152.23.039.086.06.182.06.289 0 .104-.021.201-.062.293-.042.094-.097.174-.165.242-.067.067-.148.123-.242.164-.093.043-.188.062-.293.062-.155 0-.317-.029-.485-.092-.169-.062-.324-.148-.465-.267-.095-.077-.177-.166-.25-.264-.127.062-.267.127-.417.189-.221.088-.443.164-.67.227-.229.064-.443.113-.648.15s-.384.055-.534.055h-.081c-.298 0-.592-.051-.883-.156-.29-.104-.551-.258-.78-.459-.229-.199-.415-.442-.557-.729s-.212-.609-.212-.972v-.088c0-.272.059-.545.176-.815.117-.271.288-.515.513-.729.226-.215.495-.389.812-.52.279-.113.584-.177.916-.191.023-.004.049-.006.073-.006h1.537c.343 0 .514-.146.514-.434l.005-.328zm-2.093 2.293c-.074.01-.146.022-.221.043-.128.028-.242.076-.349.143-.104.066-.19.146-.26.234-.068.092-.104.197-.104.317v.089c.024.243.113.438.269.586.153.146.367.221.641.221.005 0 .013-.002.022-.004s.019-.004.028-.004h.036c.117-.004.246-.021.389-.051.142-.03.286-.066.433-.109.146-.045.292-.094.437-.15s.273-.119.392-.188c.068-.033.137-.078.205-.135.067-.058.117-.107.146-.15l.022-1.012c-.016.016-.05.033-.106.053-.056.02-.127.037-.212.055-.086.019-.178.031-.273.043-.1.015-.193.021-.286.021l-1.209-.002zM485.309 446.278c0-.102.02-.197.059-.289.039-.09.094-.17.161-.242.068-.069.147-.125.238-.163.09-.039.188-.06.297-.06.219 0 .401.07.545.213.146.142.217.322.217.541v.017c0 .225-.074.405-.224.545-.149.139-.329.209-.538.209-.216 0-.395-.072-.539-.218-.144-.143-.216-.321-.216-.536v-.017zm0 3.034c0-.098.02-.193.059-.285.039-.094.094-.174.161-.242.068-.067.148-.125.242-.168.092-.045.189-.065.293-.065.106 0 .207.021.3.062s.173.099.241.168c.068.07.124.152.165.246.042.092.062.188.062.285v6.078c0 .104-.021.201-.062.293-.041.094-.098.174-.168.242-.071.067-.151.123-.242.164-.09.043-.188.062-.296.062-.104 0-.201-.02-.293-.062-.094-.041-.174-.097-.242-.164-.067-.068-.122-.148-.161-.242-.039-.092-.059-.189-.059-.293v-6.079zM490.851 448.996c.146-.084.284-.151.413-.204.13-.056.258-.101.385-.138s.254-.062.381-.08c.127-.018.262-.024.403-.024.229 0 .456.026.681.084.226.057.438.133.639.229.198.099.388.215.562.353.175.137.329.289.462.455.06.062.102.137.128.219.026.084.04.164.04.242 0 .102-.02.199-.059.293-.039.092-.091.176-.154.248-.062.073-.142.131-.233.172-.094.043-.189.062-.293.062-.138 0-.236-.018-.301-.055-.063-.037-.126-.084-.187-.146-.062-.062-.136-.134-.225-.216-.088-.084-.228-.176-.417-.278-.226-.093-.438-.14-.645-.14-.245 0-.461.047-.648.14-.188.094-.347.215-.477.362-.129.148-.227.312-.293.494-.065.181-.1.355-.1.527v3.793c0 .104-.021.201-.062.293-.041.094-.098.174-.168.242-.071.067-.151.123-.242.164-.09.043-.188.062-.296.062-.104 0-.201-.02-.293-.062-.094-.041-.174-.097-.242-.164-.067-.068-.122-.148-.161-.242-.039-.092-.059-.189-.059-.293v-6.078c0-.098.02-.193.059-.285.039-.094.094-.174.161-.242.068-.067.148-.125.242-.168.092-.045.189-.065.293-.065.146 0 .282.039.41.121.129.08.226.189.296.325zM501.145 454.183c.068-.098.155-.174.26-.229.105-.053.225-.079.355-.079.093 0 .185.02.273.059.092.039.171.094.242.162.07.067.127.146.168.235.042.093.062.189.062.298 0 .104-.021.2-.06.297-.039.096-.091.182-.153.26-.063.078-.132.15-.205.213-.072.064-.138.117-.189.162-.176.141-.346.25-.51.324-.163.076-.321.135-.473.176-.151.043-.297.068-.437.078-.139.01-.27.014-.392.014-.475 0-.898-.084-1.274-.252s-.692-.414-.948-.736c-.257-.321-.453-.719-.59-1.188s-.205-1.012-.205-1.623c0-.629.07-1.182.212-1.654.143-.475.346-.869.608-1.188.264-.316.581-.558.952-.717.371-.162.786-.242 1.245-.242.42 0 .812.071 1.179.219.367.146.686.375.956.686.271.312.484.705.642 1.187.155.482.234 1.053.234 1.711 0 .107-.021.207-.062.297-.042.09-.097.172-.165.242-.067.07-.148.125-.24.164-.095.039-.191.059-.293.059h-3.699c.029.24.079.455.15.646.069.19.162.352.277.479.114.129.256.229.425.297.168.068.367.103.598.103.161 0 .3-.015.417-.043.117-.029.217-.066.297-.111.081-.043.148-.092.205-.143.058-.059.103-.111.138-.163zm-2.132-3.65c-.112.156-.195.322-.248.498-.055.176-.096.363-.125.564h2.893c-.034-.215-.081-.416-.143-.605-.062-.188-.146-.35-.256-.485-.11-.138-.251-.242-.422-.318s-.378-.113-.622-.113-.455.039-.635.121c-.177.079-.325.193-.442.338z"/></g><g><path d="M108.026 466.912c-.272.277-.6.496-.978.654-.379.16-.771.238-1.176.238h-3.802c-.104 0-.2-.021-.293-.062-.094-.041-.174-.096-.241-.164-.068-.067-.122-.147-.161-.241-.039-.093-.06-.189-.06-.293v-9.111c0-.103.021-.199.06-.293.039-.092.093-.174.161-.244.067-.07.147-.127.241-.166.093-.039.189-.059.293-.059h3.802c.425 0 .82.082 1.189.241.368.162.69.382.967.66.275.277.493.603.651.97.159.368.238.756.238 1.161 0 .41-.078.802-.234 1.173-.156.37-.376.696-.659.979l-.064.066c-.017.016-.028.026-.041.037-.012.01-.023.02-.033.028.317.322.569.668.755 1.039.187.371.278.785.278 1.238 0 .416-.078.807-.234 1.172-.156.371-.375.695-.659.977zm-5.185-5.184h3.032c.116 0 .263-.023.436-.07.174-.045.341-.127.502-.242.161-.112.299-.27.414-.465.114-.194.172-.442.172-.746 0-.161-.033-.332-.099-.514-.066-.18-.163-.344-.29-.494-.127-.147-.285-.271-.476-.365-.19-.096-.41-.143-.659-.143h-3.032v3.039zm3.032 1.523h-3.032v3.038h3.032c.171 0 .346-.032.522-.1.18-.063.341-.162.487-.293.146-.129.269-.289.366-.479.098-.191.146-.408.146-.652 0-.117-.023-.262-.073-.437-.049-.174-.132-.34-.249-.502-.116-.16-.272-.297-.469-.41-.193-.108-.437-.165-.73-.165zM116.109 467.36c-.259.156-.519.271-.779.34-.262.07-.531.105-.81.105-.421 0-.813-.08-1.184-.24-.368-.162-.69-.381-.967-.656-.275-.274-.493-.598-.651-.967-.159-.369-.238-.76-.238-1.176v-3.801c0-.099.021-.193.06-.285.039-.094.093-.174.161-.242.067-.068.147-.125.241-.168.093-.045.189-.066.293-.066.106 0 .207.021.301.062.093.041.173.098.24.168.068.07.124.152.165.246.042.092.062.188.062.285v3.801c0 .19.034.377.103.557.068.183.168.342.302.484.131.141.29.258.479.348s.399.135.634.135c.219 0 .422-.04.607-.125.186-.081.346-.194.479-.336.136-.143.239-.303.315-.483.075-.181.113-.373.113-.578v-3.801c0-.099.021-.193.062-.285.041-.094.096-.176.164-.246s.149-.127.242-.168.191-.062.301-.062c.097 0 .191.021.281.06.091.039.171.092.242.156.069.065.127.146.168.241.042.097.062.197.062.306v6.078c0 .112-.021.217-.066.312-.043.094-.1.176-.168.24-.067.065-.148.117-.241.154-.094.036-.187.055-.277.055-.143 0-.277-.035-.407-.109-.128-.076-.225-.188-.289-.339zM124.192 465.837c.068-.099.155-.175.261-.229.104-.053.224-.08.354-.08.093 0 .186.021.274.06.091.039.171.094.241.161.07.068.128.146.169.236.042.092.062.189.062.297 0 .104-.02.201-.059.297-.039.097-.092.183-.154.261-.063.078-.131.149-.205.213-.072.063-.137.117-.189.162-.176.141-.346.25-.51.323-.163.076-.321.136-.473.177-.151.043-.296.067-.437.078-.139.01-.27.014-.392.014-.474 0-.898-.084-1.274-.252s-.691-.414-.947-.736c-.258-.322-.453-.719-.591-1.188-.137-.471-.204-1.013-.204-1.623 0-.629.069-1.183.212-1.654.142-.475.345-.869.607-1.188.265-.315.581-.557.952-.717.371-.162.786-.242 1.245-.242.42 0 .813.072 1.179.22.367.146.687.375.956.686.271.312.484.705.643 1.187.154.481.233 1.053.233 1.711 0 .106-.021.207-.062.297-.042.09-.098.172-.165.242-.068.069-.149.125-.241.164-.094.039-.191.059-.293.059h-3.699c.029.24.079.455.15.645.07.191.163.353.277.48.114.129.257.229.426.297.168.068.367.103.597.103.161 0 .3-.015.417-.044.117-.028.217-.065.297-.11.081-.043.149-.092.205-.144.059-.058.104-.11.138-.163zm-2.131-3.649c-.111.156-.194.322-.248.498-.055.176-.096.363-.125.563h2.894c-.034-.215-.081-.416-.144-.604-.061-.188-.146-.35-.256-.486s-.251-.242-.422-.317c-.171-.076-.378-.113-.622-.113s-.455.039-.634.121c-.178.079-.326.192-.443.338zM130.166 460.651c.146-.084.284-.152.413-.205.13-.055.258-.1.385-.137s.254-.062.381-.08.261-.025.403-.025c.359 0 .722.068 1.084.209.359.14.687.341.978.604.29.264.525.584.706.959.181.377.271.801.271 1.275v3.793c0 .112-.021.217-.066.312-.043.094-.1.176-.168.24-.068.065-.149.117-.242.154-.093.036-.186.055-.276.055-.108 0-.207-.021-.298-.062-.091-.041-.171-.096-.241-.164-.07-.067-.127-.147-.168-.241-.042-.093-.062-.189-.062-.293v-3.793c0-.195-.038-.388-.113-.572-.075-.187-.181-.348-.314-.49-.134-.141-.294-.254-.479-.336-.186-.084-.389-.125-.606-.125-.245 0-.461.047-.648.139-.188.095-.347.216-.477.363-.129.148-.228.312-.293.494-.065.18-.1.354-.1.527v3.793c0 .104-.021.2-.062.293-.041.094-.099.174-.168.241-.071.068-.151.123-.242.164-.09.043-.189.062-.296.062-.104 0-.201-.021-.293-.062-.094-.041-.174-.096-.242-.164-.068-.067-.122-.147-.161-.241-.039-.093-.059-.189-.059-.293v-6.078c0-.099.02-.193.059-.285.039-.094.093-.174.161-.242s.148-.125.242-.168c.092-.045.188-.066.293-.066.146 0 .282.039.41.121.121.078.219.188.288.324zM140.388 460.203c.443 0 .854.078 1.23.234.375.156.695.393.963.711.266.316.474.713.622 1.187.148.475.224 1.03.224 1.67 0 .602-.068 1.137-.205 1.606-.137.474-.335.869-.594 1.191s-.577.569-.955.742c-.379.174-.809.26-1.285.26-.469 0-.892-.08-1.268-.244s-.694-.406-.956-.727c-.262-.318-.463-.716-.604-1.189-.142-.473-.212-1.02-.212-1.641 0-.658.077-1.228.23-1.703.153-.478.364-.869.634-1.183.269-.312.59-.543.963-.692.374-.147.777-.222 1.213-.222zm1.091 1.993c-.122-.156-.275-.272-.462-.352-.186-.079-.395-.117-.629-.117-.304 0-.553.057-.748.168-.195.113-.35.27-.465.469-.114.201-.193.439-.238.72-.043.276-.064.586-.064.922 0 .448.035.819.105 1.112s.173.527.309.699c.134.174.295.297.482.367.188.07.395.104.619.104.219 0 .423-.036.611-.108.188-.074.349-.199.482-.377.135-.179.237-.412.312-.699.072-.289.108-.654.108-1.1 0-.396-.033-.746-.103-1.056-.066-.304-.173-.556-.319-.752zM146.742 465.521c-.1 0-.194-.02-.29-.059s-.177-.093-.241-.16c-.066-.068-.12-.148-.161-.242-.042-.092-.062-.189-.062-.293 0-.098.021-.193.06-.289s.093-.178.161-.246c.067-.068.147-.123.242-.164.092-.041.188-.062.293-.062h5.09c.103 0 .2.021.293.062s.173.096.242.164c.066.068.121.15.159.246.039.096.06.191.06.289 0 .104-.021.201-.06.293-.038.094-.093.174-.159.242-.069.067-.149.121-.242.16s-.19.059-.293.059h-5.092zM102.863 485.285c-.055.156-.146.281-.274.373-.129.095-.279.142-.45.142-.107 0-.209-.021-.304-.062-.097-.041-.176-.098-.242-.166-.065-.067-.118-.147-.157-.24-.039-.094-.059-.186-.059-.278 0-.078.015-.158.044-.242l3.047-9.125c.054-.146.144-.268.271-.363.126-.096.272-.143.439-.143.15 0 .296.047.436.139.14.094.232.219.281.375l3.04 9.117c.016.045.024.088.029.129s.007.082.007.121c0 .102-.021.199-.062.293-.042.092-.098.17-.165.234-.068.062-.149.114-.242.153s-.188.06-.285.06c-.176 0-.327-.049-.454-.146-.127-.094-.215-.217-.264-.369l-.586-1.766h-3.464l-.586 1.764zm3.545-3.28l-1.23-3.685-1.23 3.685h2.46zM111.591 475.933c0-.103.02-.197.059-.289.039-.09.094-.17.161-.242.068-.07.147-.125.238-.164.09-.039.188-.059.297-.059.219 0 .401.07.545.213.146.141.217.322.217.541v.016c0 .226-.074.406-.224.545-.149.14-.329.209-.538.209-.216 0-.395-.071-.539-.217-.144-.143-.216-.322-.216-.537v-.016zm0 3.033c0-.099.02-.193.059-.285.039-.094.094-.174.161-.242.068-.068.148-.125.242-.168.092-.045.189-.066.293-.066.106 0 .207.021.3.062s.173.098.241.168.124.152.165.246c.042.092.062.188.062.285v6.078c0 .104-.021.2-.062.293-.041.094-.098.174-.168.241-.071.068-.151.123-.242.164-.09.043-.188.062-.296.062-.104 0-.201-.021-.293-.062-.094-.041-.174-.096-.242-.164-.067-.067-.122-.147-.161-.241-.039-.093-.059-.189-.059-.293v-6.078zM117.133 478.651c.146-.084.284-.152.413-.205.13-.055.258-.1.385-.137s.254-.062.381-.08.261-.025.403-.025c.229 0 .456.027.681.084.226.058.438.134.639.23.198.098.388.215.562.352.175.138.329.289.462.455.06.062.102.138.128.22.026.084.04.164.04.241 0 .103-.02.199-.059.293-.039.093-.091.177-.154.248-.062.074-.142.132-.234.173-.093.043-.188.062-.293.062-.137 0-.235-.018-.3-.055-.063-.037-.126-.084-.187-.146-.062-.061-.137-.133-.225-.215-.088-.084-.228-.176-.417-.279-.226-.092-.438-.139-.645-.139-.245 0-.461.047-.648.139-.188.095-.347.216-.477.363-.129.148-.228.312-.293.494-.065.18-.1.354-.1.527v3.793c0 .104-.021.2-.062.293-.041.094-.098.174-.168.241-.071.068-.151.123-.242.164-.09.043-.188.062-.296.062-.104 0-.201-.021-.293-.062-.094-.041-.174-.096-.242-.164-.067-.067-.122-.147-.161-.241-.039-.093-.059-.189-.059-.293v-6.078c0-.099.02-.193.059-.285.039-.094.094-.174.161-.242.068-.068.148-.125.242-.168.092-.045.189-.066.293-.066.146 0 .282.039.41.121.129.079.226.189.296.325zM127.427 483.837c.068-.099.155-.175.26-.229.105-.053.225-.08.355-.08.093 0 .185.021.273.06.092.039.171.094.242.161.07.068.127.146.168.236.042.092.062.189.062.297 0 .104-.021.201-.06.297-.039.097-.091.183-.153.261-.063.078-.132.149-.205.213-.072.063-.138.117-.189.162-.176.141-.346.25-.51.323-.163.076-.321.136-.474.177-.15.043-.296.067-.436.078-.139.01-.27.014-.392.014-.475 0-.898-.084-1.274-.252s-.692-.414-.948-.736c-.257-.322-.453-.719-.59-1.188-.137-.471-.205-1.013-.205-1.623 0-.629.07-1.183.212-1.654.143-.475.346-.869.608-1.188.264-.315.581-.557.952-.717.371-.162.786-.242 1.245-.242.42 0 .812.072 1.179.22.367.146.686.375.956.686.271.312.483.705.642 1.187.155.481.234 1.053.234 1.711 0 .106-.021.207-.062.297-.042.09-.097.172-.165.242-.067.069-.148.125-.24.164-.095.039-.191.059-.293.059h-3.699c.029.24.079.455.149.645.07.191.163.353.278.48.114.129.256.229.425.297.168.068.367.103.598.103.161 0 .3-.015.417-.044.116-.028.217-.065.297-.11.081-.043.148-.092.205-.144.059-.058.104-.11.138-.163zm-2.132-3.649c-.112.156-.195.322-.248.498-.055.176-.096.363-.125.563h2.893c-.034-.215-.081-.416-.143-.604s-.146-.35-.256-.486c-.11-.137-.251-.242-.422-.317-.172-.076-.378-.113-.622-.113s-.455.039-.635.121c-.176.079-.325.192-.442.338zM137.209 479.155c.105.146.16.299.16.455 0 .107-.019.209-.056.303-.036.097-.09.181-.161.25-.069.07-.15.127-.24.168-.092.043-.188.062-.289.062-.245 0-.445-.096-.603-.285-.054-.068-.133-.129-.236-.18-.105-.051-.221-.092-.346-.121-.124-.029-.25-.049-.377-.062-.127-.012-.242-.018-.344-.018-.205.004-.385.029-.539.072-.153.045-.281.104-.385.176-.103.074-.178.156-.228.246-.049.09-.072.182-.072.274 0 .099.029.191.092.285.061.092.146.172.26.238.112.063.244.119.396.16.15.043.318.063.506.069.352.023.686.091 1.003.193.316.105.595.25.831.432.236.185.425.404.563.66.14.256.209.545.209.867 0 .353-.074.676-.221.971-.146.298-.345.55-.597.763-.251.213-.542.377-.871.494-.33.116-.679.176-1.044.176-.327 0-.649-.045-.968-.14-.316-.092-.6-.217-.846-.368-.247-.154-.447-.328-.601-.523-.154-.195-.231-.391-.231-.586 0-.098.021-.191.06-.283.039-.09.091-.17.153-.242.063-.069.143-.125.234-.168.093-.041.192-.062.301-.062.126 0 .247.026.362.082.114.053.208.137.282.248.014.028.05.071.104.129.057.057.136.115.238.18.103.062.226.117.37.164s.312.07.501.07c.181 0 .349-.025.502-.074s.287-.111.398-.189c.112-.077.2-.17.265-.274.063-.105.095-.213.095-.326 0-.176-.104-.326-.311-.453-.208-.127-.503-.203-.884-.229-.396-.023-.757-.097-1.084-.215-.327-.119-.608-.275-.846-.47-.237-.192-.42-.42-.55-.682-.129-.262-.194-.551-.194-.867 0-.299.063-.586.191-.865.126-.276.312-.524.557-.739.243-.216.54-.388.89-.517s.745-.192 1.19-.192c.16 0 .345.012.553.034.207.025.421.072.642.142.22.068.435.162.645.285.216.121.404.282.571.482z"/></g><g><path d="M73.686 316.617c0 .103-.021.199-.062.293-.041.093-.099.175-.168.242-.071.068-.151.123-.242.164-.09.041-.189.062-.296.062-.104 0-.201-.021-.293-.062-.095-.041-.174-.096-.242-.164-.068-.067-.122-.149-.161-.242-.039-.094-.059-.19-.059-.293v-9.11c0-.104.02-.201.059-.293.039-.095.093-.175.161-.246.068-.07.148-.125.242-.164.092-.039.188-.06.293-.06.17 0 .318.048.445.14.128.094.218.207.271.344l3.092 6.189 3.135-6.248c.06-.121.147-.222.268-.3.12-.077.255-.116.407-.116.097 0 .19.018.28.055.092.035.172.09.246.16.072.071.13.151.172.242.041.09.062.188.062.297v9.11c0 .103-.021.199-.06.293-.039.093-.095.175-.164.242-.071.068-.151.123-.242.164-.09.041-.189.062-.296.062-.104 0-.201-.021-.293-.062-.095-.041-.175-.096-.242-.162-.068-.063-.122-.146-.161-.239-.039-.097-.06-.195-.06-.298v-5.918l-2.38 4.738c-.059.133-.153.236-.286.312-.132.075-.262.114-.388.114-.162 0-.301-.043-.418-.129s-.205-.184-.264-.297l-2.358-4.725v5.905h.002zM87.936 315.408c.068-.098.155-.174.26-.227.105-.055.225-.08.355-.08.093 0 .185.02.274.059.091.039.171.093.241.16.07.068.127.148.168.238.042.09.062.188.062.297 0 .103-.021.201-.06.297-.038.094-.091.183-.153.26-.063.078-.131.148-.205.214-.072.062-.137.116-.189.159-.176.144-.346.25-.51.326-.163.076-.321.135-.473.176-.152.041-.296.066-.437.076-.139.011-.27.017-.392.017-.475 0-.898-.084-1.274-.254-.376-.168-.691-.412-.947-.734-.258-.322-.453-.719-.591-1.191-.137-.471-.205-1.012-.205-1.621 0-.631.07-1.182.213-1.655.142-.474.345-.869.607-1.187.264-.317.581-.557.952-.719.371-.16.786-.242 1.245-.242.42 0 .812.074 1.179.221.367.146.687.375.956.685.271.311.484.707.642 1.188.155.48.234 1.052.234 1.711 0 .107-.021.205-.062.296-.042.092-.098.172-.165.241-.068.072-.149.127-.241.166-.094.039-.191.06-.293.06H85.43c.029.237.079.453.15.645.069.189.163.351.277.479.114.131.256.229.426.297.168.067.366.104.597.104.161 0 .3-.016.417-.045s.217-.065.297-.108c.081-.046.149-.093.205-.144.057-.058.102-.109.137-.165zm-2.132-3.645c-.112.156-.195.322-.248.498-.055.176-.096.362-.125.562h2.894c-.034-.215-.081-.416-.144-.604-.061-.188-.146-.351-.256-.486-.11-.137-.251-.244-.422-.32-.171-.073-.378-.112-.622-.112s-.455.041-.634.121-.326.193-.443.341zM92.319 310.992c-.054-.063-.094-.129-.121-.196-.025-.068-.039-.146-.039-.229 0-.106.02-.209.059-.307.039-.099.093-.183.161-.25.067-.068.147-.123.242-.164.092-.041.188-.062.293-.062.253 0 .458.101.614.302l1.67 2.227 1.671-2.227c.141-.201.344-.302.606-.302.104 0 .199.021.289.062.091.041.17.096.238.16.067.065.122.146.161.241.039.097.059.195.059.298 0 .166-.049.313-.146.446l-1.935 2.586 1.94 2.584c.104.146.153.304.153.47 0 .104-.02.2-.059.293-.039.094-.096.172-.168.233-.074.064-.155.115-.246.154-.09.039-.187.059-.289.059-.254 0-.454-.098-.601-.293l-1.67-2.239-1.678 2.239c-.079.104-.168.179-.268.224-.101.047-.214.069-.341.069-.112 0-.218-.021-.315-.065-.098-.043-.178-.101-.241-.168-.062-.068-.112-.148-.149-.242-.036-.092-.056-.189-.056-.293 0-.15.055-.297.161-.439l1.935-2.584-.976-1.297-.954-1.29zM100.424 307.507c0-.104.02-.199.059-.289s.094-.172.161-.242c.068-.07.147-.125.238-.164.09-.039.188-.059.297-.059.219 0 .401.069.545.211.146.143.217.321.217.543v.014c0 .225-.074.406-.224.547-.149.139-.329.209-.538.209-.216 0-.395-.072-.539-.217-.144-.146-.216-.324-.216-.539v-.014zm0 3.03c0-.098.02-.19.059-.284.039-.093.094-.175.161-.242.068-.068.148-.123.242-.168.092-.043.189-.066.293-.066.106 0 .207.021.3.062.093.043.173.098.241.168.068.071.124.153.165.246.042.094.062.188.062.284v6.08c0 .103-.021.199-.062.293-.041.093-.098.175-.168.242-.071.068-.151.123-.242.164-.09.041-.188.062-.296.062-.104 0-.201-.021-.293-.062-.094-.041-.174-.096-.242-.164-.067-.067-.122-.149-.161-.242-.039-.094-.059-.19-.059-.293v-6.08zM108.668 315.358c.067-.106.157-.188.268-.242.109-.053.235-.08.377-.08.088 0 .177.019.269.056.09.037.169.09.236.16.068.071.124.151.165.241.042.093.062.189.062.297 0 .156-.042.304-.124.439-.084.137-.188.262-.312.373-.125.113-.253.211-.385.293-.132.084-.244.15-.337.199-.391.188-.838.285-1.34.285-.469 0-.893-.082-1.269-.246-.376-.162-.693-.404-.956-.726-.261-.319-.463-.717-.604-1.188-.142-.476-.212-1.021-.212-1.642 0-.659.077-1.229.229-1.703.154-.477.365-.87.635-1.184.269-.312.59-.543.963-.691.374-.147.776-.225 1.213-.225.521 0 .985.107 1.391.318.405.213.737.506.996.877.088.131.133.272.133.424 0 .113-.021.215-.065.309-.044.093-.102.172-.168.24-.069.068-.148.123-.238.162-.091.039-.18.059-.268.059-.278 0-.496-.114-.652-.344-.102-.152-.246-.277-.432-.375-.187-.098-.418-.146-.695-.146-.527 0-.912.186-1.154.553-.241.369-.361.945-.361 1.727 0 .449.035.82.109 1.113.072.293.176.525.308.699.133.174.292.295.479.365.188.071.395.106.619.106.234 0 .44-.033.622-.1.181-.065.347-.198.498-.403zM115.704 309.776c.442 0 .854.078 1.229.234.375.155.696.395.963.711.267.317.475.713.622 1.188.149.474.225 1.029.225 1.67 0 .601-.068 1.138-.205 1.607-.138.47-.335.867-.595 1.188-.259.322-.576.57-.955.744-.379.175-.808.261-1.284.261-.47 0-.893-.082-1.269-.246-.376-.162-.693-.404-.956-.726-.261-.319-.463-.717-.604-1.188-.143-.476-.212-1.021-.212-1.642 0-.659.077-1.229.229-1.703.154-.477.365-.87.634-1.184.27-.312.591-.543.964-.691.375-.146.779-.223 1.214-.223zm1.091 1.993c-.122-.156-.276-.273-.462-.352-.187-.079-.396-.117-.629-.117-.305 0-.554.057-.748.17-.195.11-.351.268-.465.469-.114.199-.193.439-.238.717-.043.279-.065.586-.065.924 0 .449.035.82.106 1.113.069.293.173.525.308.699.134.174.295.295.483.365.188.071.394.106.619.106.219 0 .423-.037.61-.11.188-.072.35-.197.483-.377.134-.179.237-.41.312-.699.072-.287.109-.654.109-1.099 0-.396-.034-.747-.103-1.055-.066-.307-.174-.559-.32-.754z"/></g><g><path d="M369.447 315.951c-.107 0-.207-.02-.297-.062-.091-.041-.17-.096-.237-.164-.068-.068-.122-.148-.161-.242-.039-.092-.06-.188-.06-.285 0-.104.021-.201.06-.293.039-.094.093-.174.161-.246.067-.069.147-.125.241-.164.093-.039.189-.059.293-.059h6.087c.103 0 .199.02.293.059.093.039.173.095.241.164.067.072.123.152.164.242.042.09.062.189.062.297 0 .099-.021.193-.06.285-.039.094-.093.174-.16.242-.068.068-.15.123-.245.164-.097.043-.194.062-.297.062h-2.285v8.357c0 .102-.021.199-.06.293-.039.092-.093.174-.161.242-.067.067-.148.123-.24.164-.095.041-.191.062-.293.062-.104 0-.201-.021-.293-.062-.095-.041-.175-.097-.242-.164-.068-.068-.123-.15-.165-.242-.041-.094-.062-.191-.062-.293v-8.357h-2.284zM382.928 323.101c.068-.098.155-.174.26-.227.105-.056.225-.08.355-.08.093 0 .185.02.273.059.092.039.171.092.242.16.07.067.127.147.168.238.042.09.062.188.062.297 0 .102-.021.201-.06.297-.039.094-.091.182-.153.26-.063.078-.132.148-.205.213-.072.062-.138.117-.189.16-.176.143-.346.25-.51.326-.163.076-.321.135-.473.176-.152.041-.297.066-.437.076-.139.01-.27.016-.392.016-.475 0-.898-.084-1.274-.254-.376-.168-.691-.412-.948-.733-.257-.322-.452-.72-.59-1.191-.137-.471-.205-1.012-.205-1.621 0-.631.07-1.182.212-1.656.143-.473.346-.869.608-1.186.264-.318.581-.558.952-.719.371-.16.786-.242 1.245-.242.42 0 .812.074 1.179.221.367.146.686.375.956.684.271.312.484.707.642 1.188.155.48.234 1.051.234 1.711 0 .107-.021.205-.062.295-.042.092-.097.172-.164.242-.068.072-.149.127-.241.166-.095.039-.191.059-.293.059h-3.699c.029.238.079.453.15.646.069.188.162.35.277.479.114.131.256.229.425.297.168.068.367.104.598.104.161 0 .3-.016.417-.045s.217-.066.297-.109c.081-.045.148-.092.205-.143.059-.06.104-.11.138-.164zm-2.132-3.648c-.112.156-.195.322-.248.498-.055.177-.096.363-.125.562h2.893c-.033-.215-.081-.416-.143-.604-.062-.188-.146-.35-.256-.485-.11-.138-.251-.244-.422-.32-.171-.074-.378-.113-.622-.113s-.455.041-.635.121c-.176.08-.325.196-.442.341zM388.968 317.878c.474-.273.979-.41 1.517-.41.36 0 .723.069 1.084.209.36.139.688.342.979.604.29.265.524.582.706.959.181.375.271.802.271 1.273v3.795c0 .111-.021.215-.065.311-.043.097-.101.177-.168.242-.068.066-.149.117-.242.154-.093.035-.187.055-.277.055-.107 0-.207-.021-.297-.062-.091-.041-.171-.097-.242-.164-.069-.068-.127-.15-.168-.242-.042-.094-.062-.191-.062-.293v-3.795c0-.195-.038-.385-.113-.57-.076-.186-.181-.35-.315-.49-.134-.143-.294-.254-.479-.338-.187-.082-.389-.125-.607-.125-.244 0-.461.047-.647.142-.188.092-.347.213-.478.36-.129.15-.227.314-.293.494-.064.183-.099.357-.099.527v3.795c0 .102-.021.199-.062.293-.04.092-.098.174-.168.242-.07.067-.15.123-.241.164s-.189.062-.296.062c-.104 0-.201-.021-.293-.062-.095-.041-.175-.097-.242-.164-.068-.068-.122-.15-.161-.242-.039-.094-.06-.191-.06-.293v-9.113c0-.104.021-.201.06-.293.039-.094.093-.174.161-.246.067-.069.147-.125.242-.164.092-.039.188-.059.293-.059.105 0 .205.02.296.059s.171.095.241.164c.07.072.128.152.168.242.042.09.062.189.062.297v2.681h-.005zM400.156 323.101c.068-.098.155-.174.261-.227.104-.056.224-.08.354-.08.093 0 .185.02.274.059.091.039.171.092.241.16.07.067.127.147.168.238.042.09.062.188.062.297 0 .102-.021.201-.059.297-.039.094-.092.182-.154.26-.063.078-.131.148-.205.213-.072.062-.137.117-.189.16-.176.143-.346.25-.51.326-.163.076-.321.135-.473.176-.152.041-.296.066-.437.076-.139.01-.27.016-.392.016-.474 0-.898-.084-1.274-.254-.376-.168-.691-.412-.947-.733-.258-.322-.453-.72-.591-1.191-.137-.471-.204-1.012-.204-1.621 0-.631.069-1.182.212-1.656.142-.473.345-.869.607-1.186.265-.318.581-.558.952-.719.371-.16.786-.242 1.245-.242.42 0 .812.074 1.179.221.367.146.687.375.956.684.271.312.484.707.643 1.188.154.48.233 1.051.233 1.711 0 .107-.021.205-.062.295-.042.092-.098.172-.165.242-.068.072-.149.127-.241.166-.094.039-.191.059-.293.059h-3.699c.029.238.079.453.15.646.069.188.163.35.277.479.114.131.257.229.426.297.168.068.366.104.597.104.161 0 .3-.016.417-.045s.217-.066.297-.109c.081-.045.149-.092.205-.143.059-.06.104-.11.139-.164zm-2.132-3.648c-.112.156-.195.322-.248.498-.055.177-.096.363-.125.562h2.894c-.034-.215-.081-.416-.144-.604-.061-.188-.146-.35-.256-.485-.11-.138-.251-.244-.422-.32-.171-.074-.378-.113-.622-.113s-.455.041-.634.121c-.178.08-.325.196-.443.341zM406.131 317.914c.146-.081.283-.149.413-.204.13-.054.258-.101.385-.136.127-.037.254-.063.381-.082.127-.016.261-.024.403-.024.229 0 .456.028.681.084.225.057.437.135.638.231.199.099.389.216.563.353s.329.287.462.453c.059.063.101.137.128.221.026.082.04.162.04.24 0 .104-.021.201-.059.293-.039.094-.092.176-.154.25-.063.071-.143.131-.234.172s-.188.062-.293.062c-.137 0-.235-.02-.3-.055-.063-.037-.126-.086-.187-.146-.062-.062-.137-.134-.225-.218-.088-.082-.228-.176-.417-.276-.226-.095-.438-.142-.645-.142-.245 0-.461.047-.648.142-.188.092-.347.213-.477.36-.129.15-.228.314-.293.494-.065.183-.1.357-.1.527v3.795c0 .102-.021.199-.062.293-.041.092-.099.174-.168.242-.071.067-.151.123-.242.164-.09.041-.189.062-.296.062-.104 0-.201-.021-.293-.062-.094-.041-.174-.097-.242-.164-.068-.068-.122-.15-.161-.242-.039-.094-.059-.191-.059-.293v-6.08c0-.098.02-.191.059-.285.039-.092.093-.174.161-.242.068-.067.148-.123.242-.168.092-.043.188-.065.293-.065.146 0 .282.041.41.121.129.08.227.189.296.325zM416.9 319.636c-.02-.138-.07-.248-.153-.336-.103-.107-.224-.187-.361-.234-.141-.049-.281-.078-.425-.088-.146-.01-.254-.016-.326-.016-.273 0-.525.03-.755.092s-.453.143-.675.246c-.106.053-.217.08-.329.08-.103 0-.198-.021-.288-.06-.092-.039-.174-.094-.245-.164-.074-.069-.131-.151-.173-.242-.041-.09-.062-.188-.062-.288 0-.166.048-.312.146-.433.097-.123.224-.229.381-.315.154-.089.328-.16.516-.22.188-.059.376-.104.564-.139.188-.035.362-.059.526-.07.163-.012.294-.018.393-.018.41 0 .81.063 1.196.197.39.131.733.35 1.036.651.133.142.25.31.353.504.104.24.162.437.176.586.016.152.021.281.021.39v3.795c.083.01.166.033.249.071.083.039.156.095.221.162.063.068.113.146.152.23s.06.182.06.289c0 .102-.021.199-.062.293-.042.092-.097.174-.165.242-.067.067-.148.123-.242.164-.093.041-.188.062-.293.062-.155 0-.317-.031-.485-.092-.169-.062-.324-.15-.465-.269-.095-.077-.177-.166-.25-.264-.127.064-.267.127-.417.191-.221.088-.443.162-.67.227-.229.062-.443.113-.648.15-.205.035-.384.055-.534.055h-.081c-.298 0-.592-.053-.883-.158-.29-.104-.551-.258-.78-.457-.229-.201-.415-.442-.557-.729-.142-.287-.212-.609-.212-.971v-.089c0-.272.059-.547.176-.815.117-.271.288-.515.513-.729.226-.215.495-.389.812-.521.279-.111.584-.176.916-.189.023-.006.049-.008.073-.008h1.538c.342 0 .513-.145.513-.432l.005-.331zm-2.093 2.293c-.074.01-.146.024-.221.045-.127.029-.242.076-.349.143-.104.064-.19.146-.26.234s-.103.195-.103.318v.088c.023.244.112.438.268.586.153.146.367.219.641.219.005 0 .013 0 .022-.004.009-.002.019-.002.029-.002h.035c.117-.006.246-.023.389-.053.142-.03.286-.064.433-.109.146-.043.292-.094.437-.15.145-.055.273-.116.392-.186.068-.035.137-.08.205-.137.068-.056.117-.105.146-.15l.022-1.01c-.015.014-.05.031-.106.051-.056.02-.127.039-.212.055-.086.019-.178.033-.273.045-.1.013-.193.019-.286.019l-1.209-.002zM422.978 317.914c.146-.081.284-.149.413-.204.13-.054.258-.101.385-.136.127-.037.254-.063.381-.082.127-.016.262-.024.403-.024.36 0 .722.069 1.084.209.36.139.687.342.978.604.29.265.525.582.706.959.182.375.271.802.271 1.273v3.795c0 .111-.021.215-.066.311-.043.097-.1.177-.168.242-.067.066-.148.117-.242.154-.093.035-.186.055-.276.055-.108 0-.207-.021-.297-.062-.092-.041-.171-.097-.242-.164-.07-.068-.127-.15-.168-.242-.042-.094-.062-.191-.062-.293v-3.795c0-.195-.038-.385-.112-.57-.076-.186-.182-.35-.315-.49-.134-.143-.294-.254-.479-.338-.187-.082-.39-.125-.607-.125-.245 0-.461.047-.648.142-.188.092-.347.213-.477.36-.129.15-.227.314-.293.494-.065.183-.099.357-.099.527v3.795c0 .102-.021.199-.062.293-.041.092-.098.174-.168.242-.071.067-.151.123-.242.164-.09.041-.188.062-.296.062-.104 0-.201-.021-.293-.062-.094-.041-.174-.097-.242-.164-.067-.068-.122-.15-.161-.242-.038-.094-.059-.191-.059-.293v-6.08c0-.098.021-.191.059-.285.039-.092.094-.174.161-.242.068-.067.148-.123.242-.168.092-.043.189-.065.293-.065.146 0 .282.041.41.121.121.079.217.188.288.324z"/></g><g><path d="M303.043 86.577c.014.067.021.135.021.198 0 .111-.021.215-.065.312-.043.096-.101.176-.168.242-.068.065-.149.116-.242.155s-.188.06-.285.06c-.083 0-.164-.015-.242-.043-.078-.029-.148-.068-.216-.117-.065-.049-.12-.107-.165-.176-.043-.068-.075-.144-.095-.222-.06-.18-.139-.332-.238-.457s-.225-.227-.373-.305-.331-.137-.546-.176-.467-.06-.754-.06c-.401 0-.734.06-1 .177-.268.116-.485.272-.656.469s-.3.422-.388.678c-.088.258-.147.523-.18.803-.031.277-.05.56-.052.839-.003.28-.004.543-.004.786 0 .283.004.576.011.88.009.303.03.596.07.879.038.282.104.553.197.807s.222.478.389.666c.165.191.381.342.646.455.264.111.586.168.967.168.419 0 .771-.057 1.055-.168.282-.113.512-.289.688-.527.176-.239.307-.553.393-.938.085-.387.133-.855.144-1.406h-2.277c-.104 0-.201-.021-.293-.062-.094-.041-.174-.099-.242-.166-.068-.068-.123-.148-.165-.24-.041-.094-.062-.191-.062-.293 0-.107.021-.207.062-.297.042-.09.097-.172.165-.242s.148-.125.242-.164c.092-.039.188-.059.293-.059h3.039v.006c.098 0 .194.02.289.059.096.039.176.094.242.162.064.068.118.148.16.242.041.092.062.188.062.293 0 .276-.001.561-.003.85-.003.287-.02.576-.048.863-.063.631-.189 1.172-.377 1.627-.188.453-.439.826-.755 1.117-.314.289-.69.504-1.128.645-.438.14-.933.207-1.482.207-.65 0-1.194-.078-1.634-.235-.439-.16-.8-.375-1.08-.646-.281-.271-.496-.586-.646-.945-.148-.358-.257-.735-.321-1.133-.066-.395-.104-.799-.11-1.211s-.011-.811-.011-1.19c0-.375.005-.769.015-1.175.01-.407.049-.807.117-1.194s.177-.759.326-1.109c.147-.352.364-.66.647-.926.282-.267.643-.478 1.076-.631.436-.152.976-.23 1.619-.23.502 0 .944.051 1.325.154.381.102.707.246.978.432.271.187.492.41.663.67.17.258.303.539.402.842zM306.028 85.237c0-.102.021-.198.06-.293.039-.092.093-.174.161-.243.067-.072.147-.128.242-.166.092-.039.188-.06.293-.06.105 0 .205.021.296.06.091.038.171.094.241.166.07.069.128.149.168.239.042.092.062.189.062.297v8.357c.083.01.166.033.249.072s.156.094.22.162c.064.067.114.145.153.229s.059.182.059.289c0 .104-.021.201-.062.293-.042.094-.097.174-.165.242s-.149.123-.242.164c-.093.043-.188.062-.293.062-.156 0-.318-.028-.486-.092-.169-.061-.323-.149-.465-.27-.143-.121-.26-.271-.352-.451-.094-.183-.141-.394-.141-.637l.002-8.42zM315.342 89.677c-.021-.137-.07-.25-.153-.338-.103-.107-.224-.187-.361-.234-.141-.049-.281-.078-.426-.088s-.253-.014-.325-.014c-.273 0-.525.028-.756.092-.229.061-.452.143-.674.244-.106.055-.217.08-.329.08-.103 0-.198-.021-.289-.06s-.173-.094-.244-.164c-.074-.069-.132-.149-.174-.241-.041-.091-.062-.187-.062-.289 0-.166.048-.312.146-.433.098-.123.225-.227.382-.313.154-.088.327-.162.516-.222.188-.059.376-.104.563-.139.188-.035.363-.057.527-.07.163-.012.294-.018.393-.018.409 0 .81.066 1.196.197.39.133.733.35 1.036.651.133.142.25.312.353.507.104.237.161.434.176.586.016.149.021.278.021.387v3.795c.083.01.166.033.249.072s.156.094.221.162c.063.067.113.145.152.229s.06.183.06.289c0 .104-.021.201-.062.293-.042.094-.097.174-.165.242-.067.068-.148.123-.242.164-.093.043-.188.062-.293.062-.155 0-.317-.028-.485-.092-.169-.061-.324-.149-.465-.268-.095-.078-.177-.166-.25-.265-.128.064-.267.127-.417.191-.221.088-.443.164-.671.227-.228.064-.442.113-.647.15s-.384.055-.534.055h-.081c-.298 0-.592-.053-.883-.155-.29-.105-.551-.259-.78-.459-.229-.199-.415-.443-.557-.729-.143-.286-.212-.609-.212-.971v-.088c0-.273.059-.545.176-.816.117-.271.288-.514.513-.729.226-.216.495-.39.812-.521.278-.113.584-.176.916-.191.023-.004.049-.008.072-.008h1.538c.343 0 .514-.143.514-.432l.005-.328zm-2.094 2.291c-.074.01-.146.025-.222.045-.127.029-.241.076-.348.143-.104.066-.191.146-.26.234-.069.089-.104.197-.104.318v.088c.024.244.113.438.269.586.152.146.367.221.641.221 0 0 .012-.002.022-.004.009-.002.019-.004.028-.004h.036c.117-.006.246-.021.389-.051.142-.03.285-.066.433-.111.146-.043.292-.094.436-.147.146-.058.274-.119.393-.188.067-.035.137-.08.205-.135.067-.058.117-.107.146-.15l.022-1.012c-.016.016-.05.031-.106.051-.056.021-.127.039-.212.058-.086.016-.178.03-.273.043-.1.012-.193.018-.286.018l-1.209-.003zM325.228 88.46c.106.146.16.299.16.455 0 .106-.018.209-.055.303-.036.096-.09.18-.161.25-.07.07-.151.127-.241.168-.091.041-.188.062-.289.062-.245 0-.445-.096-.602-.284-.055-.068-.133-.129-.237-.181-.105-.051-.22-.092-.345-.121-.124-.028-.25-.051-.377-.062s-.242-.019-.345-.019c-.204.005-.385.029-.539.072-.152.045-.28.104-.385.176-.102.074-.178.156-.227.246-.049.091-.073.183-.073.273 0 .098.03.193.092.287.062.092.147.172.261.237.111.064.243.119.396.16s.319.064.506.07c.353.023.687.088 1.003.193.317.104.596.25.831.432.237.184.425.404.564.66.139.256.209.545.209.867 0 .352-.074.676-.222.971-.146.295-.345.549-.597.762-.251.213-.542.377-.871.494-.33.117-.678.176-1.044.176-.327 0-.648-.047-.967-.139-.317-.094-.6-.217-.846-.369-.247-.154-.447-.33-.602-.524-.154-.195-.23-.392-.23-.586 0-.099.02-.191.059-.281s.091-.17.154-.242c.062-.07.142-.127.233-.168.093-.041.192-.062.302-.062.126 0 .247.027.361.08.114.056.208.138.282.25.014.029.05.072.105.129.057.056.136.115.237.179.104.063.227.119.37.166.145.047.312.067.501.067.182 0 .35-.022.502-.071.154-.05.287-.113.399-.191s.2-.168.264-.273c.064-.104.095-.215.095-.325 0-.177-.104-.328-.311-.455-.208-.127-.502-.201-.883-.228-.396-.022-.757-.096-1.084-.215-.327-.121-.609-.277-.847-.469-.236-.193-.42-.42-.55-.683-.129-.262-.193-.551-.193-.868 0-.297.062-.586.19-.863.126-.279.312-.525.558-.74.242-.215.54-.387.89-.516.349-.129.745-.195 1.19-.195.159 0 .345.014.553.037.207.025.421.07.641.139.22.069.436.164.646.287.214.121.402.283.569.482zM331.084 87.509c.302 0 .592.035.867.109.275.071.519.18.729.321.068-.123.16-.223.275-.305.113-.08.25-.121.405-.121.107 0 .206.021.298.062.09.043.169.098.237.166.067.067.123.147.164.239.042.095.062.189.062.287v6.84c0 .396-.071.775-.213 1.14-.143.363-.346.686-.611.967s-.586.506-.959.674c-.374.17-.793.254-1.256.254-.377 0-.731-.053-1.066-.154-.334-.104-.633-.243-.896-.426-.265-.18-.487-.399-.671-.662-.184-.262-.312-.553-.385-.875-.016-.063-.021-.125-.021-.184 0-.092.02-.184.059-.273.039-.092.093-.17.161-.233.068-.066.148-.121.242-.162.092-.041.188-.062.285-.062.189 0 .354.058.489.168.138.113.226.255.265.427.016.098.059.198.133.307.072.107.172.209.296.301.125.094.279.168.466.226.186.055.399.084.646.084.205 0 .398-.033.586-.101.185-.065.348-.164.485-.293.141-.129.248-.289.326-.477.078-.188.117-.4.117-.642v-.381c-.2.133-.434.229-.699.289-.267.062-.539.092-.815.092-.47 0-.893-.082-1.269-.243-.376-.164-.693-.406-.956-.728-.261-.318-.463-.717-.604-1.188-.143-.476-.212-1.021-.212-1.642 0-.66.077-1.227.229-1.703.154-.477.365-.871.635-1.184.269-.313.588-.543.959-.691.372-.148.778-.223 1.217-.223zm1.091 1.992c-.122-.156-.276-.273-.462-.353-.187-.079-.396-.117-.629-.117-.305 0-.554.056-.748.169-.195.11-.351.268-.465.469-.114.199-.195.438-.241.717-.047.279-.069.586-.069.924 0 .449.036.82.109 1.113s.177.524.312.699c.135.174.295.295.483.366.188.07.394.105.619.105.219 0 .423-.037.61-.109.188-.073.35-.198.483-.377.134-.18.237-.412.312-.7.071-.287.108-.654.108-1.099 0-.396-.034-.748-.103-1.055-.065-.307-.173-.557-.319-.752zM339.724 87.509c.443 0 .854.078 1.23.234.375.155.695.393.963.709.266.317.474.713.622 1.188.148.473.224 1.029.224 1.67 0 .601-.068 1.137-.205 1.607-.137.47-.335.867-.594 1.188-.259.322-.577.57-.955.744-.379.174-.808.26-1.285.26-.469 0-.892-.082-1.268-.243-.376-.164-.694-.406-.956-.728-.261-.318-.463-.717-.604-1.188-.142-.476-.212-1.021-.212-1.642 0-.66.077-1.227.23-1.703s.364-.871.634-1.184c.269-.313.59-.543.963-.691.374-.147.777-.221 1.213-.221zm1.09 1.992c-.122-.156-.275-.273-.462-.353-.186-.079-.395-.117-.629-.117-.304 0-.553.056-.748.169-.195.11-.35.268-.465.469-.114.199-.193.438-.238.717-.043.279-.064.586-.064.924 0 .449.035.82.105 1.113s.173.524.309.699c.134.174.295.295.482.366.188.07.395.105.619.105.219 0 .423-.037.611-.109.188-.073.349-.198.482-.377.135-.18.237-.412.312-.7.072-.287.108-.654.108-1.099 0-.396-.033-.748-.103-1.055-.065-.307-.172-.557-.319-.752zM345.037 88.54c-.039-.103-.06-.197-.06-.285 0-.107.023-.207.07-.301.046-.093.104-.17.176-.234.07-.062.152-.113.245-.148.093-.036.183-.057.271-.057.172 0 .319.049.443.146.125.094.214.211.269.348l1.573 4.188 1.531-4.096c.054-.18.144-.322.269-.428.123-.105.28-.158.473-.158.194 0 .354.055.476.162s.212.248.271.424l1.531 4.096 1.566-4.188c.049-.127.137-.242.264-.346.128-.103.273-.152.439-.152.103 0 .199.02.289.062.091.041.173.095.245.16.074.066.133.146.176.242.045.096.066.193.066.297-.005.043-.011.088-.016.135-.005.048-.018.093-.036.136l-2.284 6.071c-.069.183-.171.31-.306.382-.134.073-.268.108-.397.108-.172 0-.32-.043-.447-.131s-.215-.207-.264-.359l-1.574-4.174-1.568 4.174c-.028.095-.071.171-.128.23-.056.062-.117.111-.183.15-.066.038-.134.067-.201.084-.069.018-.133.024-.191.024-.176 0-.324-.045-.449-.139-.124-.092-.212-.209-.261-.353l-1.143-3.039-1.135-3.031z"/></g><g><path d="M417.87 99.147c0 .104-.021.201-.062.293-.041.095-.098.174-.168.242-.071.068-.151.123-.242.164-.09.043-.188.062-.296.062-.104 0-.201-.021-.293-.062-.094-.041-.174-.096-.242-.164-.067-.068-.122-.147-.161-.242-.039-.092-.059-.188-.059-.293v-9.11c0-.103.02-.199.059-.293.039-.093.093-.175.161-.244.068-.072.148-.127.242-.166.092-.039.188-.06.293-.06.17 0 .319.047.446.14.127.094.217.209.271.346l3.092 6.188 3.136-6.245c.059-.123.146-.224.267-.302s.255-.116.407-.116c.097 0 .19.018.281.055s.172.09.246.162c.071.069.13.149.172.239.041.093.062.189.062.298v9.11c0 .104-.021.201-.059.293-.04.095-.096.174-.165.242-.071.068-.151.123-.242.164-.09.043-.189.062-.296.062-.104 0-.201-.021-.293-.062-.094-.041-.174-.094-.242-.16-.068-.065-.122-.146-.161-.242-.039-.096-.059-.192-.059-.297V93.23l-2.38 4.738c-.06.133-.154.236-.286.312-.132.076-.263.113-.389.113-.161 0-.301-.043-.418-.129-.116-.084-.205-.184-.264-.297l-2.358-4.723v5.903zM431.089 92.308c.442 0 .854.078 1.229.234.375.155.696.393.963.709.267.317.475.713.622 1.188.149.474.225 1.029.225 1.67 0 .601-.068 1.138-.205 1.607-.138.47-.335.867-.595 1.188-.259.322-.576.57-.954.744-.38.174-.809.261-1.285.261-.47 0-.893-.082-1.269-.244-.376-.164-.693-.406-.956-.728-.261-.317-.463-.717-.604-1.188-.143-.476-.212-1.021-.212-1.642 0-.66.077-1.227.229-1.703.154-.477.365-.87.634-1.184.27-.312.591-.543.964-.691.375-.147.778-.221 1.214-.221zm1.091 1.992c-.122-.156-.276-.273-.462-.353-.187-.078-.396-.116-.629-.116-.305 0-.554.055-.748.168-.195.11-.351.268-.465.469-.114.199-.193.439-.238.717-.043.279-.065.586-.065.924 0 .449.035.82.106 1.113.069.293.173.525.308.699.134.174.295.295.483.367.188.069.394.104.619.104.219 0 .423-.037.61-.108.188-.074.35-.199.483-.377.134-.181.237-.412.312-.701.072-.287.109-.654.109-1.099 0-.396-.034-.748-.103-1.055-.066-.307-.175-.557-.32-.752zM441.954 93.259c.106.146.16.299.16.455 0 .106-.018.209-.055.303-.036.096-.09.18-.161.25-.07.07-.151.127-.241.168-.091.041-.188.062-.289.062-.245 0-.444-.097-.602-.285-.054-.068-.133-.129-.237-.181-.104-.051-.22-.092-.345-.12-.124-.029-.25-.052-.377-.062s-.242-.018-.344-.018c-.205.004-.386.028-.539.071-.153.045-.281.104-.386.177-.102.073-.178.155-.227.246-.049.09-.073.182-.073.272 0 .098.03.193.092.287.062.092.147.172.261.238.111.063.244.119.396.16.152.041.319.063.506.069.353.023.687.088 1.003.193.317.104.596.25.831.432.237.185.426.404.564.66s.209.545.209.867c0 .352-.074.676-.221.971-.147.295-.346.549-.598.762-.251.214-.542.378-.871.494-.329.117-.678.177-1.044.177-.326 0-.648-.048-.967-.14-.316-.094-.6-.217-.846-.369-.247-.153-.447-.33-.602-.524-.153-.195-.23-.392-.23-.586 0-.099.02-.191.059-.281s.091-.17.154-.242c.062-.07.142-.127.234-.168.092-.041.191-.062.301-.062.126 0 .247.026.361.08.114.055.208.137.282.25.015.028.05.071.105.129.057.055.136.114.237.178.104.063.227.119.37.166.145.047.312.068.501.068.182 0 .35-.023.502-.072.154-.049.287-.113.399-.191s.2-.168.264-.272c.064-.105.096-.215.096-.326 0-.176-.104-.328-.312-.455-.208-.127-.502-.201-.883-.228-.396-.022-.757-.096-1.084-.215-.327-.121-.609-.276-.846-.469-.237-.193-.42-.42-.551-.682-.129-.263-.193-.552-.193-.869 0-.297.062-.586.19-.863.126-.279.312-.524.558-.74.243-.215.54-.387.89-.516s.745-.195 1.19-.195c.16 0 .345.015.553.037.207.025.421.07.641.14.221.068.436.163.646.286.216.121.402.284.569.483zM448.872 97.888c.068-.107.157-.188.269-.242.109-.053.234-.08.377-.08.088 0 .177.021.268.056.091.037.169.092.237.162.068.069.124.149.165.241.042.09.062.188.062.295 0 .156-.042.304-.124.439-.084.137-.188.262-.312.375-.125.111-.253.209-.385.293-.132.082-.244.148-.337.197-.392.188-.838.285-1.34.285-.47 0-.893-.082-1.269-.244-.376-.164-.694-.406-.956-.728-.261-.317-.463-.717-.604-1.188-.143-.476-.212-1.021-.212-1.642 0-.66.076-1.227.229-1.703.154-.477.365-.87.634-1.184.27-.312.591-.543.963-.691.374-.147.777-.223 1.214-.223.521 0 .984.105 1.391.318s.737.504.996.875c.088.131.133.272.133.424 0 .113-.021.215-.066.309-.044.093-.101.175-.168.242-.068.068-.147.121-.237.16-.091.039-.181.059-.269.059-.277 0-.496-.114-.651-.344-.103-.152-.246-.274-.433-.373-.186-.098-.418-.146-.694-.146-.527 0-.912.184-1.154.553-.241.369-.362.943-.362 1.725 0 .449.036.82.11 1.113.072.293.176.525.307.699.133.174.292.295.48.367.188.069.394.104.619.104.233 0 .44-.033.622-.1.181-.062.347-.198.497-.403zM455.908 92.308c.443 0 .854.078 1.23.234.375.155.696.393.963.709.266.317.474.713.622 1.188.148.474.224 1.029.224 1.67 0 .601-.067 1.138-.205 1.607-.137.47-.335.867-.594 1.188-.259.322-.577.57-.955.744-.379.174-.808.261-1.285.261-.469 0-.892-.082-1.268-.244-.376-.164-.694-.406-.956-.728-.261-.317-.463-.717-.604-1.188-.142-.476-.212-1.021-.212-1.642 0-.66.077-1.227.23-1.703.154-.477.365-.87.634-1.184.27-.312.59-.543.963-.691.375-.147.779-.221 1.213-.221zM457 94.3c-.122-.156-.276-.273-.463-.353-.186-.078-.395-.116-.629-.116-.304 0-.553.055-.748.168-.194.11-.35.268-.465.469-.114.199-.192.439-.238.717-.043.279-.064.586-.064.924 0 .449.035.82.105 1.113s.174.525.309.699c.134.174.295.295.482.367.188.069.395.104.619.104.22 0 .423-.037.611-.108.188-.074.349-.199.483-.377.134-.181.236-.412.312-.701.072-.287.109-.654.109-1.099 0-.396-.034-.748-.104-1.055-.065-.307-.173-.557-.319-.752zM466.138 99.462c-.259.156-.52.271-.78.342-.261.07-.531.105-.809.105-.421 0-.814-.08-1.185-.242-.368-.16-.689-.379-.967-.654-.275-.275-.493-.598-.651-.967s-.237-.762-.237-1.176v-3.802c0-.098.02-.192.059-.287.039-.092.093-.172.161-.239.068-.068.148-.125.242-.17.092-.043.188-.064.293-.064.105 0 .207.021.3.062.093.041.173.098.241.168.067.069.124.151.165.243.042.095.062.189.062.287v3.802c0 .188.034.375.104.557.067.18.168.342.301.482.131.143.291.258.479.35.188.09.399.135.635.135.219 0 .422-.041.606-.125.187-.082.347-.194.479-.336.135-.143.238-.303.314-.483.075-.181.113-.373.113-.578V93.07c0-.098.021-.192.062-.286.041-.093.096-.175.163-.244.068-.07.149-.127.242-.168.093-.043.192-.062.302-.062.097 0 .19.021.28.06.091.038.171.092.242.155.07.066.127.146.168.242.042.096.062.197.062.305V99.15c0 .113-.021.218-.066.312-.043.094-.1.176-.168.24-.068.065-.149.116-.242.153s-.186.056-.276.056c-.144 0-.277-.037-.407-.109-.127-.076-.225-.188-.287-.34z"/></g><g><path d="M508.795 193.653h-3.032v3.793c0 .104-.021.201-.062.293-.041.095-.098.175-.168.242-.07.068-.15.123-.241.164-.091.043-.189.062-.297.062-.104 0-.2-.021-.293-.062-.094-.041-.174-.096-.242-.164-.067-.067-.121-.147-.16-.242-.039-.092-.06-.188-.06-.293v-9.11c0-.103.021-.199.06-.293.039-.092.093-.174.16-.244.068-.072.148-.127.242-.166.093-.039.189-.06.293-.06h3.802c.425 0 .82.08 1.189.242.368.16.69.381.967.658.275.279.493.604.651.971.159.369.238.757.238 1.162 0 .4-.077.783-.23 1.148-.154.367-.366.69-.638.971-.271.281-.592.506-.963.674-.371.17-.777.254-1.216.254zm-3.032-1.523h3.032c.116 0 .263-.023.436-.07.174-.047.341-.127.502-.242.161-.112.299-.27.414-.465.114-.194.172-.442.172-.746 0-.162-.033-.332-.099-.514-.066-.18-.163-.346-.29-.494-.127-.147-.285-.271-.477-.365-.189-.096-.409-.145-.658-.145h-3.032v3.041zM518.475 196.237c.068-.098.155-.172.26-.227.105-.053.225-.08.355-.08.093 0 .185.021.273.059.091.039.171.093.242.16.07.068.127.148.168.238.042.092.062.189.062.297 0 .104-.021.201-.06.297-.039.097-.091.183-.154.261-.062.077-.131.147-.204.213-.072.062-.138.116-.189.159-.176.144-.346.253-.51.326-.163.076-.321.136-.474.177-.15.043-.296.067-.436.077-.139.011-.271.015-.393.015-.474 0-.897-.084-1.273-.252s-.692-.414-.948-.736c-.257-.322-.453-.719-.59-1.189-.137-.473-.205-1.014-.205-1.622 0-.632.07-1.183.212-1.656s.345-.869.608-1.187.581-.557.951-.719c.371-.16.786-.24 1.245-.24.42 0 .813.072 1.18.22.366.146.686.375.956.686s.483.705.642 1.186c.155.482.234 1.052.234 1.712 0 .106-.021.207-.062.297-.042.09-.097.17-.165.241-.067.07-.148.125-.241.164-.094.039-.19.06-.293.06h-3.698c.028.238.078.453.149.645.07.189.163.351.278.48.114.129.256.227.425.295.168.068.367.104.597.104.161 0 .301-.016.417-.045.117-.028.218-.063.298-.108.08-.043.148-.092.205-.144.059-.056.103-.109.138-.164zm-2.132-3.646c-.112.156-.195.322-.248.498-.056.176-.097.363-.125.563h2.893c-.034-.215-.081-.416-.143-.604s-.146-.351-.256-.486c-.11-.137-.251-.242-.422-.317-.172-.076-.378-.113-.622-.113s-.455.039-.635.121c-.177.078-.325.191-.442.338zM522.99 188.335c0-.103.021-.199.06-.289s.093-.17.161-.242c.067-.07.146-.125.237-.164.09-.039.188-.059.297-.059.111 0 .213.02.305.059.09.039.169.092.236.16.068.068.122.15.162.242.038.094.06.19.06.293v5.758l1.172-1.18c.038-.039.064-.064.08-.074l1.992-1.998c.132-.152.31-.229.534-.229.103 0 .201.021.297.062.096.043.176.098.241.166s.119.147.161.24c.041.094.062.188.062.287 0 .209-.076.387-.229.532l-1.641 1.648 1.81 3.561c.054.111.08.222.08.328 0 .107-.021.209-.062.306-.041.096-.099.176-.168.241-.071.066-.153.117-.246.156s-.188.06-.285.06c-.156 0-.292-.031-.406-.099-.115-.065-.207-.17-.274-.312l-1.566-3.105-1.553 1.562v1.2c0 .107-.021.207-.06.302-.04.092-.095.172-.165.237-.07.066-.15.117-.241.156s-.189.06-.297.06-.207-.021-.297-.062c-.091-.043-.17-.098-.237-.166-.068-.068-.122-.147-.161-.242-.039-.092-.06-.188-.06-.285v-9.11h.001zM531.688 188.335c0-.103.02-.199.059-.289s.094-.17.161-.242c.068-.07.147-.125.238-.164.09-.039.188-.059.297-.059.219 0 .401.069.545.213.146.141.217.322.217.541v.016c0 .226-.074.406-.224.545-.149.14-.329.209-.538.209-.216 0-.395-.071-.539-.217-.144-.143-.216-.322-.216-.537v-.016zm0 3.033c0-.099.02-.193.059-.287.039-.093.094-.172.161-.24.068-.068.148-.125.242-.17.092-.043.189-.064.293-.064.106 0 .207.021.3.062.094.041.174.098.241.168.068.069.124.151.165.244.042.094.062.188.062.287v6.077c0 .104-.021.201-.062.293-.041.095-.098.175-.168.242-.071.068-.151.123-.242.164-.09.043-.188.062-.296.062-.104 0-.201-.021-.293-.062-.094-.041-.174-.096-.242-.164-.067-.067-.122-.147-.161-.242-.039-.092-.059-.188-.059-.293v-6.077zM537.23 191.052c.146-.082.284-.15.413-.205.13-.053.258-.098.385-.135s.254-.062.381-.08c.127-.019.262-.025.403-.025.36 0 .722.068 1.084.209.36.14.687.34.978.604.29.264.525.584.706.959.182.377.271.801.271 1.274v3.793c0 .113-.021.218-.066.312-.043.094-.1.176-.168.24-.067.065-.148.117-.241.153-.094.037-.187.056-.277.056-.108 0-.207-.021-.297-.062-.091-.041-.171-.096-.242-.164-.07-.067-.127-.147-.168-.242-.042-.092-.062-.188-.062-.293v-3.793c0-.194-.038-.387-.112-.571-.076-.187-.182-.351-.315-.49-.134-.144-.294-.254-.479-.338-.187-.082-.39-.123-.607-.123-.245 0-.461.045-.648.139-.188.092-.347.213-.477.363-.129.147-.227.312-.293.494-.065.18-.099.354-.099.526v3.793c0 .104-.021.201-.062.293-.041.095-.098.175-.168.242-.071.068-.151.123-.242.164-.09.043-.188.062-.296.062-.104 0-.201-.021-.293-.062-.094-.041-.174-.096-.242-.164-.067-.067-.122-.147-.161-.242-.039-.092-.059-.188-.059-.293v-6.077c0-.099.02-.193.059-.287.039-.093.094-.172.161-.24.068-.068.148-.125.242-.17.092-.043.189-.064.293-.064.146 0 .282.039.41.121.121.079.218.186.288.323z"/></g><g><path d="M543.321 553.56c11.35-10.666-6.479-23.037-13.87-29.508-1.207-1.058-2.981.705-1.768 1.768 6.246 5.471 23.543 16.881 13.87 25.974-1.176 1.103.595 2.866 1.768 1.766zM518.377 519.539c.746 4.494 1.438 8.976 1.495 13.539.021 1.611 2.521 1.613 2.5 0-.06-4.786-.802-9.491-1.586-14.202-.263-1.589-2.672-.912-2.409.663z"/><path d="M519.581 520.458c5.376-.712 10.807-.828 16.183-1.541 1.574-.207 1.595-2.712 0-2.5-5.376.713-10.807.829-16.183 1.541-1.573.209-1.594 2.711 0 2.5z"/></g><g><path d="M500.709 566.094c.014.069.021.135.021.198 0 .112-.021.216-.066.312-.043.095-.1.176-.168.241-.068.066-.149.119-.242.157-.093.04-.188.059-.285.059-.083 0-.164-.014-.242-.043s-.149-.068-.216-.117c-.065-.049-.12-.107-.165-.176-.043-.068-.075-.142-.095-.221-.059-.18-.138-.333-.238-.457-.1-.125-.225-.226-.373-.305-.149-.077-.331-.136-.546-.176-.215-.038-.467-.059-.754-.059-.401 0-.734.059-1 .176-.267.117-.485.274-.656.469-.171.196-.3.422-.388.678-.088.257-.147.523-.18.803-.031.277-.049.558-.051.838-.003.281-.004.544-.004.787 0 .284.004.577.011.879.008.304.03.597.07.879.038.284.104.553.197.807s.222.476.389.666c.165.19.381.342.645.454s.586.169.967.169c.419 0 .771-.057 1.055-.169.282-.112.512-.288.688-.527s.307-.552.393-.938c.085-.386.133-.854.143-1.406h-2.277c-.104 0-.201-.021-.293-.062-.094-.041-.174-.096-.242-.165-.068-.067-.123-.148-.165-.241-.041-.093-.062-.19-.062-.293 0-.107.021-.206.062-.297.042-.09.097-.171.165-.241.068-.071.148-.126.242-.165.092-.039.189-.059.293-.059h3.039v.007c.098 0 .194.021.289.059.096.04.176.094.242.162.065.068.119.148.161.241.041.093.062.19.062.293 0 .278-.001.562-.003.85-.003.288-.019.576-.048.864-.063.63-.189 1.172-.377 1.626-.188.454-.439.826-.755 1.117-.314.29-.69.505-1.128.645-.437.139-.932.208-1.482.208-.65 0-1.194-.079-1.634-.237-.439-.159-.8-.374-1.08-.645-.281-.271-.496-.586-.645-.945-.149-.358-.257-.735-.322-1.132-.066-.395-.103-.799-.11-1.212-.007-.412-.011-.81-.011-1.19 0-.375.005-.768.015-1.175.01-.408.049-.806.117-1.194.068-.388.177-.758.326-1.109.148-.352.364-.66.648-.927.282-.266.642-.476 1.076-.63.435-.153.975-.23 1.619-.23.502 0 .944.051 1.325.154.381.102.707.246.978.432s.492.409.663.67c.17.259.304.541.402.843zM503.664 564.754c0-.103.02-.2.059-.293s.093-.175.161-.245c.068-.071.148-.126.242-.165.092-.039.189-.059.293-.059.106 0 .206.02.296.059.091.039.171.094.242.165.07.07.127.151.168.241.042.091.062.189.062.297v8.357c.083.01.166.034.249.072.083.04.156.094.22.162s.114.145.153.23c.039.085.059.182.059.289 0 .103-.021.2-.062.293-.042.093-.097.174-.165.242s-.149.123-.242.164c-.093.042-.189.062-.293.062-.156 0-.318-.03-.486-.092-.169-.061-.324-.151-.465-.271-.143-.12-.26-.27-.352-.45-.094-.181-.14-.394-.14-.638v-8.42zM511.441 567.025c.443 0 .854.078 1.23.234.375.156.696.394.963.71.266.318.474.714.622 1.188.149.474.224 1.03.224 1.67 0 .6-.068 1.136-.205 1.607-.137.471-.335.867-.594 1.189s-.577.57-.955.744c-.379.173-.808.26-1.285.26-.469 0-.892-.082-1.268-.245-.376-.164-.694-.405-.956-.726-.261-.319-.463-.716-.604-1.189s-.212-1.021-.212-1.641c0-.66.077-1.228.23-1.703.154-.477.365-.87.634-1.184.269-.312.59-.543.963-.691.374-.149.777-.223 1.213-.223zm1.09 1.992c-.122-.156-.276-.273-.462-.352s-.395-.117-.629-.117c-.304 0-.553.057-.748.169s-.35.269-.465.469c-.114.2-.193.439-.238.717-.043.279-.065.586-.065.924 0 .449.035.82.106 1.113.07.293.173.525.308.699.134.173.295.295.483.366.188.07.394.106.619.106.219 0 .423-.037.611-.11.188-.073.349-.199.483-.377.134-.179.237-.411.312-.7.072-.287.109-.653.109-1.098 0-.396-.034-.748-.103-1.055-.067-.308-.174-.559-.321-.754zM520.05 567.025c.443 0 .853.078 1.227.234.373.156.694.392.963.707.269.314.478.71.626 1.187.149.476.224 1.034.224 1.674 0 .649-.076 1.212-.227 1.688-.152.477-.362.872-.631 1.187-.269.315-.589.549-.963.7-.373.151-.779.227-1.219.227-.318 0-.604-.035-.861-.106-.256-.07-.502-.177-.736-.318-.068.142-.164.248-.289.318-.124.071-.258.106-.398.106-.104 0-.201-.021-.293-.062-.094-.041-.174-.096-.242-.164s-.122-.149-.161-.242-.059-.19-.059-.293v-9.111c0-.103.02-.2.059-.293s.093-.175.161-.245c.068-.071.148-.126.242-.165.092-.039.189-.059.293-.059.106 0 .206.02.296.059.091.039.171.094.242.165.07.07.127.151.168.241.042.091.062.189.062.297v2.651c.225-.122.459-.216.703-.282.244-.068.514-.101.813-.101zm1.091 1.992c-.117-.151-.27-.268-.458-.348-.188-.081-.398-.121-.633-.121-.533 0-.917.186-1.154.557-.236.371-.355.944-.355 1.722 0 .42.032.773.096 1.062s.158.522.285.703.285.312.473.396c.188.083.406.125.656.125.234 0 .445-.041.633-.121.188-.081.348-.21.48-.389.131-.178.231-.411.3-.699s.103-.646.103-1.076c0-.444-.035-.811-.106-1.1-.072-.288-.179-.526-.32-.711zM529.692 572.656c.068-.097.155-.173.26-.227.105-.054.224-.08.355-.08.093 0 .185.02.274.059.091.039.171.093.242.16.07.069.127.148.168.238.042.091.062.189.062.297 0 .103-.02.201-.059.297-.039.095-.091.182-.154.26s-.131.149-.205.213c-.072.063-.137.117-.189.16-.176.143-.346.251-.51.326-.163.076-.321.135-.473.176-.151.042-.296.067-.436.077-.139.01-.27.015-.392.015-.474 0-.898-.084-1.274-.253-.376-.168-.692-.413-.948-.735-.257-.322-.453-.72-.59-1.19-.137-.472-.205-1.012-.205-1.622 0-.631.07-1.182.212-1.656.142-.473.345-.868.608-1.186s.581-.557.952-.719c.371-.16.786-.241 1.245-.241.42 0 .813.073 1.179.22.367.146.686.375.956.685.271.311.484.706.642 1.187.155.481.234 1.051.234 1.711 0 .107-.021.206-.062.296-.042.091-.097.171-.165.242-.068.07-.149.126-.241.165-.094.039-.191.059-.293.059h-3.699c.029.239.079.453.15.645.07.189.163.35.278.479.114.129.256.229.425.296.168.069.367.104.597.104.161 0 .3-.016.417-.045s.217-.065.297-.109c.081-.044.149-.092.205-.143.058-.054.102-.106.137-.161zm-2.132-3.646c-.112.156-.195.322-.248.498-.055.176-.096.363-.125.563h2.893c-.034-.215-.081-.416-.143-.604-.061-.188-.146-.35-.256-.486-.11-.137-.251-.243-.422-.319-.171-.075-.378-.113-.622-.113s-.455.04-.634.121c-.178.079-.326.194-.443.34z"/></g></svg>