<svg id="Calque_1" xmlns="http://www.w3.org/2000/svg" width="1482.734" height="2102.448" viewBox="0 0 1482.734 2102.448"><path fill="none" stroke="#000" stroke-width="3" stroke-miterlimit="10" d="M0 393.607l433.006-392.4m307.393-7.653l741.425 146.637m.91 153.347l-331.242 197.887"/><path fill="none" stroke="#000" stroke-width="3" stroke-linecap="round" stroke-miterlimit="10" d="M988.1 586.152l-53.565 34.713"/><path fill="none" stroke="#000" stroke-width="3" stroke-miterlimit="10" d="M187.836 564.815L-1.936 547.472m339.628 20.913l-68.859-7.139m222.59 86.113l-65.235-4.766m165.058 9.91l-35.736-4.767m286.911-38.133l-48.097-4.987"/><path fill="none" stroke="#000" stroke-width="3" stroke-linecap="round" stroke-miterlimit="10" d="M934.535 620.864l-48.098-4.986"/><path fill="none" stroke="#000" stroke-width="3" stroke-miterlimit="10" d="M279.103 504.632l28.536-73.445v-58.012M201.007 496.548l65.076 376.617 13.02-368.533m-104.438-92.783l20.777 52.486 5.565 32.213m127.408-123.373l14.544 84.252 36.359 446.126 24.933 52.485 21.817-370.16 29.087-143.643v-69.06M446.67 115.35l8.485 80.179 30.377 365.717 54.807 800.97 21.819-1102.941 29.088-138.076V54.814m-42.594 230.878l70.642 142.732 24.933 138.117 108.041 389.496 18.698-320.438s29.09-93.92 31.167-104.969c2.079-11.049 0-121.545 0-121.545l47.788-111.58m213.625 63.264s-8.312 178.779-10.39 187.137c-2.077 8.356-48.761 102.215-48.761 102.215l-26.037-102.215-81.031-154.02"/><path fill="none" stroke="#000" stroke-width="3" stroke-miterlimit="10" d="M802.786 453.354l36.746 96.614 37.399 182.318V480.909l43.631-107.734 16.623-154.553M286.862 490.698l27.009 60.844 14.544-60.844m643.052-185.842l27.01 60.844 14.542-60.844M578.617 428.88l10.386 206.252 39.478 177.717 43.824-133.975M407.808 272.096l14.132 110.995 15.898-72.807 17.317-24.592 16.245 75.077 14.132-57.532m109.521-154.255s15.899 137.954 21.198 136.71c5.3-1.242 14.131-57.742 17.665-67.07 3.533-9.327 8.833-61.632 8.833-61.632m677.679 4.739s15.898 137.953 21.198 136.709c5.299-1.242 14.132-57.742 17.665-67.07 3.533-9.326 8.832-61.631 8.832-61.631m-704.178 11.374l7.484 77.618 20.78-38.808 7.076-29.415m434.537 43.455l7.483 77.618 20.78-38.808 7.077-29.416M859.237 37.733l7.484 77.619 20.78-38.809 7.078-29.415M701.036 76.543l7.484 77.617 20.78-38.808 7.076-29.414m12.36 186.158l14.132 42.885 10.599-42.885m0-156.746l17.665 23.673 11.654-23.673m-84.08 41.64l21.693 61.632v-79.599m156.928 42.088v36.23l20.99-60.351 26.497 30.176 7.067-30.176m361.69 205.028v36.23l20.989-60.35 26.497 30.176 7.065-30.176m-375.878-95.723l26.762 43.517 8.833-43.517m22.964-24.834l12.743 24.834s13.754-3.697 15.521-12.418c1.767-8.719 0-25.159 0-25.159m-28.264 67.498l29.047 88.673 9.815-75.075M381.694 186.51l24.731 123.128 14.132-123.128m-48.182 72.219l5.646 8.942V253.06m-163.105 137.4l5.646 8.941V384.79m395.515-25.658l5.646 8.941v-14.611m346.92-83l5.646 8.939v-14.609m30.106-85.315l5.646 8.939v-14.609m76.8 12.783l5.646 8.939V180.92m-629.02-2.098l8.111 24.926 5.646-12.463v-18.584m-13.757-45.472l8.111 24.925 5.646-12.463v-18.584"/><path fill="none" stroke="#000" stroke-width="3" stroke-miterlimit="10" d="M417.211 175.439l12.678 44.748v-31.154l4.611-25.465M117.184 474.261l12.677 44.746v-31.153l4.612-25.464m453.656-347.04l12.495 40.427 6.451-16.754v-37.548m2.487 47.541s38.485 112.592 43.784 111.35c5.299-1.244.378-27.65 3.911-36.979 3.533-9.328 0-66.362 0-66.362M400.778 58.089l8.114 24.926 5.644-12.463V51.968M354.522 106.3l12.678 44.747v-31.153l4.612-25.465m43.476-36.309l8.113 24.928 5.645-12.465V52.001"/><path fill="none" stroke="#000" stroke-width="3" stroke-miterlimit="10" d="M602.638 115.383l12.495 40.426 6.452-16.755v-37.546m89.869 191.202l47.786 87.008 76.876-106.947m6.923-69.64s15.898 137.952 21.197 136.71c5.3-1.245 14.132-57.742 17.665-67.07 3.533-9.328 8.832-61.633 8.832-61.633m21.199 24.121l7.484 77.619 20.779-38.811 7.077-29.414m34.124-172.272l21.693 61.632V54.412m35.876 523.149l36.745 96.613 37.4 182.318V605.115l43.631-107.734 16.623-154.553m55.059 13.553l26.763 43.517 8.832-43.517m-59.196 28.287l5.647 8.939v-14.609"/><path fill="none" stroke="#000" stroke-width="3" stroke-miterlimit="10" d="M1148.112 349.465l7.484 77.619 20.78-38.811 7.076-29.414m19.421-33.514l21.692 61.632v-79.601M836.116 169.498l12.495 40.426 6.451-16.754v-37.547M642.748 293.538l12.719 49.926 8.478-15.871v-59.922m441.618 93.476l12.719 49.924 8.479-15.869v-59.924M818.374 230.231l36.308 86.201 22.25 16.072s1.28-42.918 0-51.137-6.947-51.137-6.947-51.137M463.467 488.761l13.757 88.174 8.308-62.125M293.37 293.538l1.802 38.967 17.985-38.967m24.537-59.961l1.802 38.967 17.986-38.967M193.021 338.616l14.132 110.994 15.899-72.807 17.317-24.591 16.245 75.076 14.132-57.531M166.907 253.029l24.731 123.128 14.132-123.128m992.516 164.423l24.731 123.128 14.131-123.128M623.316 14.979l24.731 123.127 14.132-123.127m-504.59 310.27l5.646 8.941v-14.611"/><path fill="none" stroke="#000" stroke-width="3" stroke-miterlimit="10" d="M202.425 241.959l12.678 44.747v-31.153l4.61-25.465M78.584 360.058l1.801 38.966 17.987-38.966m24.536-59.962l1.801 38.967 17.987-38.967m12.18 178.921l1.802 38.966 17.987-38.966M356.58 316.433l18.618 66.658s-2.234-43.014 2.824-50.586c5.057-7.57 0-26.938 0-26.938M83.575 460.349l18.617 66.658s-2.232-43.014 2.823-50.586c5.057-7.57 0-26.938 0-26.938m1046.477-121.89l15.898 33.176 12.365-67.231m37.962-120.226l21.693 61.631v-79.6m-73.074 20.217l15.898 33.175 12.366-67.23m-138.498-25.716l15.899 33.176 12.365-67.232M804.24 174.246l15.899 33.174 12.365-67.229M245.831 447.769l27.011 60.843 14.542-60.843m-20.776-62.682l26.762 43.517 8.833-43.517m22.964 29.922l29.048 88.672 9.814-75.075m-121.02-15.232l5.646 8.939v-14.609m-7.597-53.652l21.693 61.631v-79.6M379.928 504.06l12.72 49.923 8.477-15.869V478.19m24.73-7.685l15.899 33.176 12.364-67.231M266.083 873.165v506.625m274.255-79.57v417.676M404.251 956.038v225.137m224.23-368.326v281.316m122.905-146.168v281.316m125.545-497.027v430.887m127.464-513.053v299.347M266.083 1379.79l62.286-70.519m-62.328 70.519l-62.286-70.519M540.359 1717.896l62.287-70.52m-62.33 70.52l-62.285-70.52m-73.758-466.201l62.283-70.52m-62.327 70.52l-62.284-70.52m286.559-16.49l62.284-70.518m-62.329 70.518l-62.285-70.518m185.234 203.275l62.284-70.518m-62.329 70.518l-62.283-70.518m187.872 5.333l62.285-70.519m-62.33 70.519l-62.283-70.519m189.793-135.18l62.284-70.519m-62.328 70.519l-62.284-70.519"/><path d="M500.733 1787.453c.035.164.053.322.053.475 0 .27-.053.519-.158.747s-.24.422-.404.58-.357.284-.58.378-.451.141-.686.141c-.199 0-.393-.035-.58-.105s-.36-.164-.519-.281-.29-.258-.396-.422-.182-.34-.229-.527c-.141-.434-.331-.8-.571-1.099s-.539-.542-.896-.729-.794-.328-1.31-.422-1.118-.141-1.81-.141c-.961 0-1.761.141-2.399.422s-1.163.656-1.573 1.125-.721 1.011-.932 1.626-.354 1.257-.431 1.925-.117 1.339-.123 2.013-.009 1.304-.009 1.89c0 .68.009 1.383.026 2.109s.073 1.43.167 2.109.252 1.324.475 1.934.533 1.143.932 1.6.914.82 1.547 1.09 1.406.404 2.32.404c1.007 0 1.851-.135 2.53-.404s1.23-.691 1.652-1.266.735-1.324.94-2.25.319-2.051.343-3.375h-5.466c-.246 0-.48-.05-.703-.149s-.416-.231-.58-.396-.296-.357-.396-.58-.149-.457-.149-.703c0-.258.05-.495.149-.712s.231-.41.396-.58.357-.302.58-.396.457-.141.703-.141h7.294v.018c.234 0 .466.047.694.141s.422.223.58.387.287.357.387.58.149.457.149.703c0 .668-.003 1.348-.009 2.039s-.044 1.383-.114 2.074c-.152 1.512-.454 2.812-.905 3.902s-1.055 1.983-1.811 2.68-1.658 1.213-2.707 1.547-2.235.501-3.559.501c-1.559 0-2.865-.19-3.92-.571s-1.919-.896-2.593-1.547-1.189-1.406-1.547-2.267-.615-1.767-.773-2.716-.246-1.919-.264-2.909-.026-1.942-.026-2.856c0-.902.012-1.843.035-2.821s.117-1.934.281-2.865.425-1.819.782-2.663.876-1.585 1.556-2.224 1.541-1.143 2.584-1.512 2.338-.554 3.885-.554c1.206 0 2.267.123 3.181.369s1.696.592 2.347 1.037 1.181.981 1.591 1.608.735 1.303.969 2.029zm14.46 2.233c1.066 0 2.051.188 2.953.562s1.673.943 2.312 1.705 1.137 1.711 1.494 2.848.536 2.473.536 4.008c0 1.441-.164 2.728-.492 3.858s-.803 2.083-1.424 2.856-1.386 1.368-2.294 1.784-1.937.624-3.085.624c-1.125 0-2.139-.196-3.041-.589s-1.667-.973-2.294-1.74-1.11-1.719-1.45-2.856-.51-2.449-.51-3.938c0-1.582.185-2.944.554-4.087s.876-2.089 1.521-2.839 1.415-1.304 2.312-1.661 1.865-.535 2.908-.535zm2.619 4.781c-.293-.375-.662-.656-1.107-.844s-.949-.281-1.512-.281c-.727 0-1.324.135-1.793.404s-.841.645-1.116 1.125-.466 1.055-.571 1.723-.158 1.406-.158 2.215c0 1.078.085 1.969.255 2.672s.416 1.263.738 1.679.709.709 1.16.879.946.255 1.485.255c.527 0 1.017-.088 1.468-.264s.838-.478 1.16-.905.571-.987.747-1.679.264-1.57.264-2.637c0-.949-.082-1.793-.246-2.531s-.422-1.342-.774-1.811zm18.117-4.781c1.066 0 2.051.188 2.953.562s1.673.943 2.312 1.705 1.137 1.711 1.494 2.848.536 2.473.536 4.008c0 1.441-.164 2.728-.492 3.858s-.803 2.083-1.424 2.856-1.386 1.368-2.294 1.784-1.937.624-3.085.624c-1.125 0-2.139-.196-3.041-.589s-1.667-.973-2.294-1.74-1.11-1.719-1.45-2.856-.51-2.449-.51-3.938c0-1.582.185-2.944.554-4.087s.876-2.089 1.521-2.839 1.415-1.304 2.312-1.661 1.865-.535 2.908-.535zm2.619 4.781c-.293-.375-.662-.656-1.107-.844s-.949-.281-1.512-.281c-.727 0-1.324.135-1.793.404s-.841.645-1.116 1.125-.466 1.055-.571 1.723-.158 1.406-.158 2.215c0 1.078.085 1.969.255 2.672s.416 1.263.738 1.679.709.709 1.16.879.946.255 1.485.255c.527 0 1.017-.088 1.468-.264s.838-.478 1.16-.905.571-.987.747-1.679.264-1.57.264-2.637c0-.949-.082-1.793-.246-2.531s-.423-1.342-.774-1.811zm18.256-4.781c.727 0 1.421.088 2.083.264s1.245.434 1.749.773c.164-.293.384-.536.659-.729s.601-.29.976-.29c.258 0 .495.05.712.149s.407.231.571.396.296.357.396.58.149.451.149.686v16.417c0 .949-.17 1.86-.51 2.733s-.829 1.646-1.468 2.32-1.406 1.213-2.303 1.617-1.901.606-3.015.606c-.902 0-1.755-.123-2.558-.369s-1.521-.586-2.153-1.02-1.169-.964-1.608-1.591-.747-1.327-.923-2.101c-.035-.152-.053-.299-.053-.439 0-.223.047-.442.141-.659s.223-.404.387-.562.357-.287.58-.387.451-.149.686-.149c.457 0 .85.135 1.178.404s.539.609.633 1.02c.035.234.141.48.316.738s.413.498.712.721.671.401 1.116.536.961.202 1.547.202c.492 0 .961-.079 1.406-.237s.835-.393 1.169-.703.595-.691.782-1.143.281-.964.281-1.538v-.914c-.48.316-1.04.548-1.679.694s-1.292.22-1.96.22c-1.125 0-2.139-.196-3.041-.589s-1.667-.973-2.294-1.74-1.11-1.719-1.45-2.856-.51-2.449-.51-3.938c0-1.582.185-2.944.554-4.087s.876-2.089 1.521-2.839 1.412-1.304 2.303-1.661 1.863-.535 2.918-.535zm2.619 4.781c-.293-.375-.662-.656-1.107-.844s-.949-.281-1.512-.281c-.727 0-1.324.135-1.793.404s-.841.645-1.116 1.125-.469 1.055-.58 1.723-.167 1.406-.167 2.215c0 1.078.088 1.969.264 2.672s.425 1.263.747 1.679.709.709 1.16.879.946.255 1.485.255c.527 0 1.017-.088 1.468-.264s.838-.478 1.16-.905.571-.987.747-1.679.264-1.57.264-2.637c0-.949-.082-1.793-.246-2.531s-.423-1.342-.774-1.811zm10.821-10.231c0-.246.047-.48.141-.703s.223-.419.387-.589.357-.302.58-.396.457-.141.703-.141c.258 0 .495.047.712.141s.41.226.58.396.305.363.404.58.149.454.149.712v20.057c.199.023.398.082.598.176s.375.222.527.386.275.349.369.554.141.437.141.694c0 .246-.05.48-.149.703s-.231.416-.396.58-.357.296-.58.396-.457.149-.703.149c-.375 0-.765-.073-1.169-.22s-.776-.363-1.116-.65-.621-.647-.844-1.081-.334-.943-.334-1.529v-20.215zm21.209 18.967c.164-.234.372-.416.624-.545s.536-.193.853-.193c.223 0 .442.047.659.141s.41.223.58.387.305.354.404.571.149.454.149.712c0 .246-.047.483-.141.711s-.217.437-.369.624-.316.357-.492.51-.328.281-.457.387c-.422.34-.829.601-1.222.782s-.771.322-1.133.422c-.363.1-.712.161-1.046.185s-.647.035-.94.035c-1.137 0-2.156-.202-3.059-.606s-1.661-.993-2.276-1.767-1.087-1.725-1.415-2.856-.492-2.429-.492-3.894c0-1.512.17-2.836.51-3.973s.826-2.086 1.459-2.848 1.395-1.336 2.285-1.723 1.887-.58 2.988-.58c1.008 0 1.951.176 2.829.527.879.352 1.644.899 2.294 1.644s1.163 1.693 1.538 2.848.562 2.522.562 4.104c0 .258-.05.495-.149.712s-.231.41-.396.58-.357.302-.58.396-.457.141-.703.141h-8.876c.07.574.19 1.09.36 1.547s.393.841.668 1.151.615.548 1.02.712.882.246 1.433.246c.387 0 .721-.035 1.002-.105s.519-.158.712-.264.357-.22.491-.343c.136-.123.244-.249.326-.378zm-5.114-8.754c-.27.375-.469.773-.598 1.195s-.229.873-.299 1.354h6.942c-.082-.516-.196-.999-.343-1.45s-.352-.841-.615-1.169-.6-.583-1.01-.765-.908-.272-1.494-.272-1.093.097-1.521.29-.781.466-1.062.817zM208.238 1459.519c-.129.375-.349.674-.659.896s-.671.334-1.081.334c-.258 0-.501-.05-.729-.149s-.422-.231-.58-.396-.284-.357-.378-.58-.141-.445-.141-.668c0-.188.035-.381.105-.58l7.312-21.902c.129-.352.346-.642.65-.87s.656-.343 1.055-.343c.363 0 .712.111 1.046.334s.56.521.677.896l7.294 21.884c.035.105.059.208.07.308s.018.196.018.29c0 .246-.05.48-.149.703s-.231.41-.396.562-.357.275-.58.369-.451.141-.686.141c-.422 0-.785-.114-1.09-.343s-.516-.524-.633-.888l-1.406-4.236h-8.313l-1.406 4.238zm8.507-7.874l-2.952-8.842-2.953 8.842h5.905zm15.937-8.051c.352-.199.683-.363.993-.492s.618-.237.923-.325.609-.152.914-.193.627-.062.967-.062c.961 0 1.878.182 2.751.545s1.679.896 2.417 1.6c.047.059.097.117.149.176s.108.111.167.158c.715-.727 1.526-1.321 2.435-1.784s1.919-.694 3.032-.694c.586 0 1.172.079 1.758.237s1.151.384 1.696.677 1.049.653 1.512 1.081.867.911 1.213 1.45.618 1.134.817 1.784.299 1.345.299 2.083v9.105c0 .246-.05.48-.149.703s-.231.416-.396.58-.357.296-.58.396-.457.149-.703.149c-.258 0-.495-.05-.712-.149s-.41-.229-.58-.387-.302-.352-.396-.58-.141-.466-.141-.712v-9.105c0-.41-.082-.835-.246-1.274s-.401-.835-.712-1.187-.691-.639-1.143-.861-.964-.334-1.538-.334c-.621 0-1.163.12-1.626.36s-.847.545-1.151.914-.527.765-.668 1.187-.211.82-.211 1.195v9.105c0 .27-.053.519-.158.747s-.24.422-.404.58-.357.281-.58.369-.445.132-.668.132c-.258 0-.495-.05-.712-.149s-.41-.231-.58-.396-.305-.357-.404-.58-.149-.457-.149-.703v-9.105c0-.469-.091-.926-.272-1.371s-.434-.838-.756-1.178-.706-.609-1.151-.809-.932-.299-1.459-.299c-.586 0-1.104.111-1.556.334s-.832.513-1.143.87-.545.753-.703 1.187-.237.855-.237 1.266v9.105c0 .246-.05.48-.149.703s-.234.416-.404.58-.363.296-.58.396-.454.149-.712.149c-.246 0-.48-.05-.703-.149s-.416-.231-.58-.396-.293-.357-.387-.58-.141-.457-.141-.703v-14.589c0-.234.047-.463.141-.686s.223-.416.387-.58.357-.299.58-.404.457-.158.703-.158c.352 0 .68.097.984.29s.538.453.702.781zm39.104 4.131c-.047-.328-.17-.598-.369-.809-.246-.258-.536-.445-.87-.562s-.674-.188-1.02-.211-.606-.035-.782-.035c-.656 0-1.26.073-1.811.22s-1.09.343-1.617.589c-.258.129-.521.193-.791.193-.246 0-.478-.047-.694-.141s-.413-.226-.589-.396-.313-.363-.413-.58-.149-.448-.149-.694c0-.398.117-.744.352-1.037s.539-.545.914-.756.788-.387 1.239-.527.902-.252 1.354-.334.873-.138 1.266-.167.706-.044.94-.044c.984 0 1.942.158 2.874.475s1.761.838 2.487 1.564c.316.34.598.744.844 1.213.246.574.387 1.043.422 1.406s.053.674.053.932v9.105c.199.023.398.082.598.176s.375.222.527.386.275.349.369.554.141.437.141.694c0 .246-.05.48-.149.703s-.231.416-.396.58-.357.296-.58.396-.457.149-.703.149c-.375 0-.765-.073-1.169-.22s-.776-.36-1.116-.642c-.223-.188-.422-.398-.598-.633-.305.152-.639.305-1.002.457-.527.211-1.063.393-1.608.545s-1.063.272-1.556.36-.92.132-1.283.132h-.193c-.715 0-1.421-.126-2.118-.378s-1.321-.618-1.872-1.099-.996-1.063-1.336-1.749c-.34-.685-.51-1.461-.51-2.329V1455c0-.656.141-1.31.422-1.96s.691-1.233 1.23-1.749 1.189-.932 1.951-1.248c.668-.27 1.4-.422 2.197-.457.059-.012.117-.018.176-.018h3.691c.82 0 1.23-.346 1.23-1.037l.017-.806zm-5.027 5.502c-.176.023-.352.059-.527.105-.305.07-.583.185-.835.343s-.46.346-.624.562-.246.472-.246.765v.211c.059.586.272 1.055.642 1.406s.882.527 1.538.527c.012 0 .029-.003.053-.009s.047-.009.07-.009h.088c.281-.012.592-.053.932-.123s.686-.158 1.037-.264.7-.226 1.046-.36.659-.284.94-.448c.164-.082.328-.19.492-.325s.281-.255.352-.36l.053-2.426c-.035.035-.12.076-.255.123s-.305.091-.51.132-.425.076-.659.105-.463.044-.686.044h-2.901zm17.992-7.049c-.516 0-.946-.173-1.292-.519s-.519-.782-.519-1.31c0-.234.047-.463.141-.686s.223-.416.387-.58.357-.299.58-.404.457-.158.703-.158h10.986c.258 0 .495.05.712.149s.407.231.571.396.296.36.396.589.149.46.149.694c0 .27-.041.501-.123.694s-.199.372-.352.536l-8.666 11.549h7.277c.234 0 .46.041.677.123s.41.205.58.369c.17.164.308.357.413.58s.158.469.158.738-.053.519-.158.747-.243.422-.413.58-.363.281-.58.369-.442.132-.677.132H284.75v-.018c-.293 0-.554-.056-.782-.167s-.419-.249-.571-.413-.267-.354-.343-.571-.114-.425-.114-.624c.012-.199.044-.393.097-.58s.144-.369.272-.545l8.789-11.671h-7.347zm26.255-3.657c1.066 0 2.051.188 2.952.562.902.375 1.673.943 2.312 1.705s1.137 1.711 1.494 2.848.536 2.473.536 4.008c0 1.441-.164 2.728-.492 3.858s-.803 2.083-1.424 2.856-1.386 1.368-2.294 1.784c-.907.416-1.936.624-3.084.624-1.125 0-2.139-.196-3.041-.589s-1.667-.973-2.294-1.74-1.11-1.719-1.45-2.856-.51-2.449-.51-3.938c0-1.582.185-2.944.554-4.087s.876-2.089 1.521-2.839 1.415-1.304 2.312-1.661 1.865-.535 2.908-.535zm2.618 4.782c-.293-.375-.661-.656-1.106-.844s-.949-.281-1.512-.281c-.727 0-1.324.135-1.793.404s-.841.645-1.116 1.125-.466 1.055-.571 1.723-.158 1.406-.158 2.215c0 1.078.085 1.969.255 2.672s.416 1.263.738 1.679.709.709 1.16.879.946.255 1.485.255c.527 0 1.017-.088 1.468-.264s.837-.478 1.159-.905.571-.987.747-1.679.264-1.57.264-2.637c0-.949-.082-1.793-.246-2.531s-.422-1.343-.774-1.811zm14.319-3.709c.352-.199.683-.363.993-.492s.618-.237.923-.325.609-.152.914-.193.627-.062.967-.062c.867 0 1.734.167 2.602.501s1.649.817 2.347 1.45 1.263 1.4 1.696 2.303.65 1.922.65 3.059v9.105c0 .27-.053.519-.158.747s-.24.422-.404.58-.357.281-.58.369-.445.132-.668.132c-.258 0-.495-.05-.712-.149s-.41-.231-.58-.396-.305-.357-.404-.58-.149-.457-.149-.703v-9.105c0-.469-.091-.926-.272-1.371s-.434-.838-.756-1.178-.706-.609-1.151-.809-.932-.299-1.459-.299c-.586 0-1.104.111-1.556.334s-.832.513-1.143.87-.545.753-.703 1.187-.237.855-.237 1.266v9.105c0 .246-.05.48-.149.703s-.234.416-.404.58-.363.296-.58.396-.454.149-.712.149c-.246 0-.48-.05-.703-.149s-.416-.231-.58-.396-.293-.357-.387-.58-.141-.457-.141-.703v-14.589c0-.234.047-.463.141-.686s.223-.416.387-.58.357-.299.58-.404.457-.158.703-.158c.352 0 .68.097.984.29s.537.453.701.781zM686.639 1280.117c.246 0 .48.047.703.141s.416.226.58.396.296.363.396.58.149.454.149.712c0 .234-.047.463-.141.686s-.223.416-.387.58-.36.296-.589.396-.466.149-.712.149h-12.761v7.295H683c.223 0 .445.041.668.123s.416.205.58.369.299.357.404.58.158.475.158.756c0 .27-.053.519-.158.747s-.24.422-.404.58-.357.281-.58.369-.445.132-.668.132h-9.122v9.105c0 .246-.05.48-.149.703s-.234.416-.404.58-.363.296-.58.396-.454.149-.712.149c-.246 0-.48-.05-.703-.149s-.416-.231-.58-.396-.293-.357-.387-.58-.141-.457-.141-.703v-21.867c0-.246.047-.48.141-.703s.223-.419.387-.589.357-.302.58-.396.457-.141.703-.141h14.606zm18.889 12.48c-.047-.328-.17-.598-.369-.809-.246-.258-.536-.445-.87-.562s-.674-.188-1.02-.211-.606-.035-.782-.035c-.656 0-1.26.073-1.811.22s-1.09.343-1.617.589c-.258.129-.521.193-.791.193-.246 0-.478-.047-.694-.141s-.413-.226-.589-.396-.313-.363-.413-.58-.149-.448-.149-.694c0-.398.117-.744.352-1.037s.539-.545.914-.756.788-.387 1.239-.527.902-.252 1.354-.334.873-.138 1.266-.167.706-.044.94-.044c.984 0 1.942.158 2.874.475s1.761.838 2.487 1.564c.316.34.598.744.844 1.213.246.574.387 1.043.422 1.406s.053.674.053.932v9.105c.199.023.398.082.598.176s.375.222.527.386.275.349.369.554.141.437.141.694c0 .246-.05.48-.149.703s-.231.416-.396.58-.357.296-.58.396-.457.149-.703.149c-.375 0-.765-.073-1.169-.22s-.776-.36-1.116-.642c-.223-.188-.422-.398-.598-.633-.305.152-.639.305-1.002.457-.527.211-1.063.393-1.608.545s-1.063.272-1.556.36-.92.132-1.283.132h-.193c-.715 0-1.421-.126-2.118-.378s-1.321-.618-1.872-1.099-.996-1.063-1.336-1.749c-.34-.685-.51-1.461-.51-2.329v-.211c0-.656.141-1.31.422-1.96s.691-1.233 1.23-1.749 1.189-.932 1.951-1.248c.668-.27 1.4-.422 2.197-.457.059-.012.117-.018.176-.018h3.691c.82 0 1.23-.346 1.23-1.037l.017-.806zm-5.027 5.502c-.176.023-.352.059-.527.105-.305.07-.583.185-.835.343s-.46.346-.624.562-.246.472-.246.765v.211c.059.586.272 1.055.642 1.406s.882.527 1.538.527c.012 0 .029-.003.053-.009s.047-.009.07-.009h.088c.281-.012.592-.053.932-.123s.686-.158 1.037-.264.7-.226 1.046-.36.659-.284.94-.448c.164-.082.328-.19.492-.325s.281-.255.352-.36l.053-2.426c-.035.035-.12.076-.255.123s-.305.091-.51.132-.425.076-.659.105-.463.044-.686.044h-2.901zm26.097 2.69c.164-.258.378-.451.642-.58s.565-.193.905-.193c.211 0 .425.044.642.132s.407.217.571.387.296.363.396.58.149.454.149.712c0 .375-.1.726-.299 1.054s-.448.627-.747.896-.606.504-.923.703-.586.357-.809.475c-.938.457-2.01.686-3.217.686-1.125 0-2.139-.196-3.041-.589s-1.667-.973-2.294-1.74-1.11-1.719-1.45-2.856-.51-2.449-.51-3.938c0-1.582.185-2.944.554-4.087s.876-2.089 1.521-2.839 1.415-1.304 2.312-1.661 1.866-.536 2.909-.536c1.254 0 2.367.255 3.34.765s1.77 1.21 2.391 2.101c.211.316.316.656.316 1.02 0 .27-.053.516-.158.738s-.24.416-.404.58-.354.293-.571.387-.431.141-.642.141c-.668 0-1.189-.275-1.564-.826-.246-.363-.592-.662-1.037-.896s-1.002-.352-1.67-.352c-1.266 0-2.188.442-2.769 1.327s-.87 2.265-.87 4.14c0 1.078.088 1.969.264 2.672s.422 1.263.738 1.679.7.709 1.151.879.946.255 1.485.255c.562 0 1.061-.079 1.494-.237s.831-.487 1.195-.979zm19.363.123c.164-.234.372-.416.624-.545s.536-.193.853-.193c.223 0 .442.047.659.141s.41.223.58.387.305.354.404.571.149.454.149.712c0 .246-.047.483-.141.711s-.217.437-.369.624-.316.357-.492.51-.328.281-.457.387c-.422.34-.829.601-1.222.782s-.771.322-1.134.422-.712.161-1.046.185-.647.035-.94.035c-1.137 0-2.156-.202-3.059-.606s-1.661-.993-2.276-1.767-1.087-1.725-1.415-2.856-.492-2.429-.492-3.894c0-1.512.17-2.836.51-3.973s.826-2.086 1.459-2.848 1.395-1.336 2.285-1.723 1.887-.58 2.988-.58c1.008 0 1.951.176 2.83.527s1.644.899 2.294 1.644 1.163 1.693 1.538 2.848.562 2.522.562 4.104c0 .258-.05.495-.149.712s-.231.41-.396.58-.357.302-.58.396-.457.141-.703.141h-8.877c.07.574.19 1.09.36 1.547s.393.841.668 1.151.615.548 1.02.712.882.246 1.433.246c.387 0 .721-.035 1.002-.105s.519-.158.712-.264.357-.22.492-.343.244-.249.326-.378zm-5.115-8.754c-.27.375-.469.773-.598 1.195s-.229.873-.299 1.354h6.943c-.082-.516-.196-.999-.343-1.45s-.352-.841-.615-1.169-.601-.583-1.011-.765-.908-.272-1.494-.272-1.093.097-1.521.29-.781.465-1.062.817zm23.249-4.764c1.066 0 2.048.188 2.944.562s1.667.94 2.312 1.696 1.146 1.705 1.503 2.848.536 2.481.536 4.017c0 1.559-.182 2.909-.545 4.052s-.867 2.091-1.512 2.847-1.415 1.315-2.312 1.679-1.872.545-2.927.545c-.762 0-1.45-.085-2.065-.255s-1.204-.425-1.767-.765c-.164.34-.396.595-.694.765s-.618.255-.958.255c-.246 0-.48-.05-.703-.149s-.416-.231-.58-.396-.293-.357-.387-.58-.141-.457-.141-.703v-21.867c0-.246.047-.48.141-.703s.223-.419.387-.589.357-.302.58-.396.457-.141.703-.141c.258 0 .495.047.712.141s.41.226.58.396.305.363.404.58.149.454.149.712v6.363c.539-.293 1.102-.519 1.688-.677s1.237-.237 1.952-.237zm2.619 4.781c-.281-.363-.647-.642-1.099-.835s-.958-.29-1.521-.29c-1.277 0-2.2.445-2.769 1.336s-.853 2.268-.853 4.131c0 1.008.076 1.857.229 2.549s.381 1.254.686 1.688.683.75 1.134.949.976.299 1.573.299c.562 0 1.069-.097 1.521-.29s.835-.504 1.151-.932.557-.987.721-1.679.246-1.553.246-2.584c0-1.066-.085-1.945-.255-2.637s-.424-1.259-.764-1.705zm18.115-4.781c1.066 0 2.051.188 2.953.562s1.673.943 2.312 1.705 1.137 1.711 1.494 2.848.536 2.473.536 4.008c0 1.441-.164 2.728-.492 3.858s-.803 2.083-1.424 2.856-1.386 1.368-2.294 1.784-1.937.624-3.085.624c-1.125 0-2.139-.196-3.041-.589s-1.667-.973-2.294-1.74-1.11-1.719-1.45-2.856-.51-2.449-.51-3.938c0-1.582.185-2.944.554-4.087s.876-2.089 1.521-2.839 1.415-1.304 2.312-1.661 1.865-.535 2.908-.535zm2.619 4.781c-.293-.375-.662-.656-1.107-.844s-.949-.281-1.512-.281c-.727 0-1.324.135-1.793.404s-.841.645-1.116 1.125-.466 1.055-.571 1.723-.158 1.406-.158 2.215c0 1.078.085 1.969.255 2.672s.416 1.263.738 1.679.709.709 1.16.879.946.255 1.485.255c.527 0 1.017-.088 1.468-.264s.838-.478 1.16-.905.571-.987.747-1.679.264-1.57.264-2.637c0-.949-.082-1.793-.246-2.531s-.422-1.342-.774-1.811zm18.116-4.781c1.066 0 2.051.188 2.953.562s1.673.943 2.312 1.705 1.137 1.711 1.494 2.848.536 2.473.536 4.008c0 1.441-.164 2.728-.492 3.858s-.803 2.083-1.424 2.856-1.386 1.368-2.294 1.784-1.937.624-3.085.624c-1.125 0-2.139-.196-3.041-.589s-1.667-.973-2.294-1.74-1.11-1.719-1.45-2.856-.51-2.449-.51-3.938c0-1.582.185-2.944.554-4.087s.876-2.089 1.521-2.839 1.415-1.304 2.312-1.661 1.865-.535 2.908-.535zm2.62 4.781c-.293-.375-.662-.656-1.107-.844s-.949-.281-1.512-.281c-.727 0-1.324.135-1.793.404s-.841.645-1.116 1.125-.466 1.055-.571 1.723-.158 1.406-.158 2.215c0 1.078.085 1.969.255 2.672s.416 1.263.738 1.679.709.709 1.16.879.946.255 1.485.255c.527 0 1.017-.088 1.468-.264s.838-.478 1.16-.905.571-.987.747-1.679.264-1.57.264-2.637c0-.949-.082-1.793-.246-2.531s-.423-1.342-.774-1.811zm10.82-10.23c0-.246.047-.478.141-.694s.223-.41.387-.58.354-.302.571-.396.454-.141.712-.141c.27 0 .513.047.729.141s.407.223.571.387.293.357.387.58.141.457.141.703v13.816l2.812-2.83c.094-.094.158-.152.193-.176l4.781-4.799c.316-.363.744-.545 1.283-.545.246 0 .483.05.712.149s.422.231.58.396.287.357.387.58.149.451.149.686c0 .504-.182.932-.545 1.283l-3.938 3.955 4.342 8.542c.129.27.193.533.193.791s-.05.501-.149.729-.234.422-.404.58-.366.284-.589.378-.451.141-.686.141c-.375 0-.7-.079-.976-.237s-.495-.407-.659-.747l-3.762-7.453-3.727 3.744v2.882c0 .258-.047.498-.141.721s-.226.413-.396.571-.363.284-.58.378-.454.141-.712.141-.495-.05-.712-.149-.407-.231-.571-.396-.293-.357-.387-.58-.141-.451-.141-.686v-21.865z"/></svg>